<?xml version="1.0" encoding="UTF-8" standalone="no"?>
<!-- Created with Inkscape (http://www.inkscape.org/) -->

<svg
   xmlns:dc="http://purl.org/dc/elements/1.1/"
   xmlns:cc="http://creativecommons.org/ns#"
   xmlns:rdf="http://www.w3.org/1999/02/22-rdf-syntax-ns#"
   xmlns:svg="http://www.w3.org/2000/svg"
   xmlns="http://www.w3.org/2000/svg"
   xmlns:sodipodi="http://sodipodi.sourceforge.net/DTD/sodipodi-0.dtd"
   xmlns:inkscape="http://www.inkscape.org/namespaces/inkscape"
   width="128"
   height="128"
   viewBox="0 0 33.866666 33.866668"
   version="1.1"
   id="svg8"
   sodipodi:docname="AddBase.svg"
   inkscape:version="0.92pre1 r15002">
  <defs
     id="defs2" />
  <sodipodi:namedview
     id="base"
     pagecolor="#ffffff"
     bordercolor="#666666"
     borderopacity="1.0"
     inkscape:pageopacity="0.0"
     inkscape:pageshadow="2"
     inkscape:zoom="5.7534677"
     inkscape:cx="43.972212"
     inkscape:cy="64.095131"
     inkscape:document-units="mm"
     inkscape:current-layer="layer1"
     showgrid="false"
     units="px"
     inkscape:window-width="1280"
     inkscape:window-height="972"
     inkscape:window-x="-8"
     inkscape:window-y="-8"
     inkscape:window-maximized="1" />
  <metadata
     id="metadata5">
    <rdf:RDF>
      <cc:Work
         rdf:about="">
        <dc:format>image/svg+xml</dc:format>
        <dc:type
           rdf:resource="http://purl.org/dc/dcmitype/StillImage" />
        <dc:title></dc:title>
      </cc:Work>
    </rdf:RDF>
  </metadata>
  <g
     inkscape:label="Layer 1"
     inkscape:groupmode="layer"
     id="layer1"
     transform="translate(0,-263.13332)">
    <g
       transform="matrix(0.29973448,0,0,-0.34646792,16.734596,290.4549)"
       id="Shape2DView"
       style="stroke:#000000;stroke-opacity:1;stroke-width:2.86108694;stroke-miterlimit:4;stroke-dasharray:none;fill:none;fill-opacity:1">
      <path
         style="fill:none;fill-rule:evenodd;stroke:#000000;stroke-width:2.86108694;stroke-miterlimit:4;stroke-dasharray:none;stroke-opacity:1;fill-opacity:1"
         d="M 38.983473,65.298118 53.066076,45.186077"
         id="Shape2DView_nwe0000"
         inkscape:connector-curvature="0" />
      <path
         style="fill:none;fill-rule:evenodd;stroke:#000000;stroke-width:2.86108694;stroke-miterlimit:4;stroke-dasharray:none;stroke-opacity:1;fill-opacity:1"
         d="M 25.87704,72.120895 A 16,16 0 0 0 38.9835,65.2981"
         id="Shape2DView_nwe0001"
         inkscape:connector-curvature="0" />
      <path
         style="fill:none;fill-rule:evenodd;stroke:#000000;stroke-width:2.86108694;stroke-miterlimit:4;stroke-dasharray:none;stroke-opacity:1;fill-opacity:1"
         d="M 38.983473,65.298118 27.515345,57.268048"
         id="Shape2DView_nwe0002"
         inkscape:connector-curvature="0" />
      <path
         style="fill:none;fill-rule:evenodd;stroke:#000000;stroke-width:2.86108694;stroke-miterlimit:4;stroke-dasharray:none;stroke-opacity:1;fill-opacity:1"
         d="M 27.515345,57.268048 41.597947,37.156007"
         id="Shape2DView_nwe0003"
         inkscape:connector-curvature="0" />
      <path
         style="fill:none;fill-rule:evenodd;stroke:#000000;stroke-width:2.86108694;stroke-miterlimit:4;stroke-dasharray:none;stroke-opacity:1;fill-opacity:1"
         d="m 41.597947,37.156007 11.468129,8.03007"
         id="Shape2DView_nwe0004"
         inkscape:connector-curvature="0" />
      <path
         style="fill:none;fill-rule:evenodd;stroke:#000000;stroke-width:2.86108694;stroke-miterlimit:4;stroke-dasharray:none;stroke-opacity:1;fill-opacity:1"
         d="M 21.192715,72.120895 H 25.87704"
         id="Shape2DView_nwe0005"
         inkscape:connector-curvature="0" />
      <path
         style="fill:none;fill-rule:evenodd;stroke:#000000;stroke-width:2.86108694;stroke-miterlimit:4;stroke-dasharray:none;stroke-opacity:1;fill-opacity:1"
         d="m 25.87704,72.120895 v -14"
         id="Shape2DView_nwe0006"
         inkscape:connector-curvature="0" />
      <path
         style="fill:none;fill-rule:evenodd;stroke:#000000;stroke-width:2.86108694;stroke-miterlimit:4;stroke-dasharray:none;stroke-opacity:1;fill-opacity:1"
         d="M 25.87704,58.120895 A 2,2 0 0 0 27.5153,57.268"
         id="Shape2DView_nwe0007"
         inkscape:connector-curvature="0" />
      <path
         style="fill:none;fill-rule:evenodd;stroke:#000000;stroke-width:2.86108694;stroke-miterlimit:4;stroke-dasharray:none;stroke-opacity:1;fill-opacity:1"
         d="M 5.192715,56.120895 A 16,16 0 0 0 21.1927,72.1209"
         id="Shape2DView_nwe0008"
         inkscape:connector-curvature="0" />
      <path
         style="fill:none;fill-rule:evenodd;stroke:#000000;stroke-width:2.86108694;stroke-miterlimit:4;stroke-dasharray:none;stroke-opacity:1;fill-opacity:1"
         d="m 21.192715,72.120895 v -14"
         id="Shape2DView_nwe0009"
         inkscape:connector-curvature="0" />
      <path
         style="fill:none;fill-rule:evenodd;stroke:#000000;stroke-width:2.86108694;stroke-miterlimit:4;stroke-dasharray:none;stroke-opacity:1;fill-opacity:1"
         d="M 21.192715,58.120895 H 25.87704"
         id="Shape2DView_nwe0010"
         inkscape:connector-curvature="0" />
      <path
         style="fill:none;fill-rule:evenodd;stroke:#000000;stroke-width:2.86108694;stroke-miterlimit:4;stroke-dasharray:none;stroke-opacity:1;fill-opacity:1"
         d="M 5.192715,2 V 56.120895"
         id="Shape2DView_nwe0011"
         inkscape:connector-curvature="0" />
      <path
         style="fill:none;fill-rule:evenodd;stroke:#000000;stroke-width:2.86108694;stroke-miterlimit:4;stroke-dasharray:none;stroke-opacity:1;fill-opacity:1"
         d="m 5.192715,56.120895 h 14"
         id="Shape2DView_nwe0012"
         inkscape:connector-curvature="0" />
      <path
         style="fill:none;fill-rule:evenodd;stroke:#000000;stroke-width:2.86108694;stroke-miterlimit:4;stroke-dasharray:none;stroke-opacity:1;fill-opacity:1"
         d="M 19.192715,56.120895 A 2,2 0 0 0 21.1927,58.1209"
         id="Shape2DView_nwe0013"
         inkscape:connector-curvature="0" />
      <path
         style="fill:none;fill-rule:evenodd;stroke:#000000;stroke-width:2.86108694;stroke-miterlimit:4;stroke-dasharray:none;stroke-opacity:1;fill-opacity:1"
         d="M 3.192715,0 A 2,2 0 0 1 5.19271,2"
         id="Shape2DView_nwe0014"
         inkscape:connector-curvature="0" />
      <path
         style="fill:none;fill-rule:evenodd;stroke:#000000;stroke-width:2.86108694;stroke-miterlimit:4;stroke-dasharray:none;stroke-opacity:1;fill-opacity:1"
         d="m 5.192715,2 h 14"
         id="Shape2DView_nwe0015"
         inkscape:connector-curvature="0" />
      <path
         style="fill:none;fill-rule:evenodd;stroke:#000000;stroke-width:2.86108694;stroke-miterlimit:4;stroke-dasharray:none;stroke-opacity:1;fill-opacity:1"
         d="M 19.192715,2 V 56.120895"
         id="Shape2DView_nwe0016"
         inkscape:connector-curvature="0" />
      <path
         style="fill:none;fill-rule:evenodd;stroke:#000000;stroke-width:2.86108694;stroke-miterlimit:4;stroke-dasharray:none;stroke-opacity:1;fill-opacity:1"
         d="m -3.192715,0 h 6.38543"
         id="Shape2DView_nwe0017"
         inkscape:connector-curvature="0" />
      <path
         style="fill:none;fill-rule:evenodd;stroke:#000000;stroke-width:2.86108694;stroke-miterlimit:4;stroke-dasharray:none;stroke-opacity:1;fill-opacity:1"
         d="M 3.192715,0 V -14"
         id="Shape2DView_nwe0018"
         inkscape:connector-curvature="0" />
      <path
         style="fill:none;fill-rule:evenodd;stroke:#000000;stroke-width:2.86108694;stroke-miterlimit:4;stroke-dasharray:none;stroke-opacity:1;fill-opacity:1"
         d="M 3.192715,-14 A 16,16 0 0 1 19.1927,2"
         id="Shape2DView_nwe0019"
         inkscape:connector-curvature="0" />
      <path
         style="fill:none;fill-rule:evenodd;stroke:#000000;stroke-width:2.86108694;stroke-miterlimit:4;stroke-dasharray:none;stroke-opacity:1;fill-opacity:1"
         d="M -5.192715,2 A 2,2 0 0 1 -3.19271,0"
         id="Shape2DView_nwe0020"
         inkscape:connector-curvature="0" />
      <path
         style="fill:none;fill-rule:evenodd;stroke:#000000;stroke-width:2.86108694;stroke-miterlimit:4;stroke-dasharray:none;stroke-opacity:1;fill-opacity:1"
         d="M -3.192715,0 V -14"
         id="Shape2DView_nwe0021"
         inkscape:connector-curvature="0" />
      <path
         style="fill:none;fill-rule:evenodd;stroke:#000000;stroke-width:2.86108694;stroke-miterlimit:4;stroke-dasharray:none;stroke-opacity:1;fill-opacity:1"
         d="m -3.192715,-14 h 6.38543"
         id="Shape2DView_nwe0022"
         inkscape:connector-curvature="0" />
      <path
         style="fill:none;fill-rule:evenodd;stroke:#000000;stroke-width:2.86108694;stroke-miterlimit:4;stroke-dasharray:none;stroke-opacity:1;fill-opacity:1"
         d="M -5.192715,56.120895 V 2"
         id="Shape2DView_nwe0023"
         inkscape:connector-curvature="0" />
      <path
         style="fill:none;fill-rule:evenodd;stroke:#000000;stroke-width:2.86108694;stroke-miterlimit:4;stroke-dasharray:none;stroke-opacity:1;fill-opacity:1"
         d="m -5.192715,2 h -14"
         id="Shape2DView_nwe0024"
         inkscape:connector-curvature="0" />
      <path
         style="fill:none;fill-rule:evenodd;stroke:#000000;stroke-width:2.86108694;stroke-miterlimit:4;stroke-dasharray:none;stroke-opacity:1;fill-opacity:1"
         d="M -19.192715,2 A 16,16 0 0 1 -3.19271,-14"
         id="Shape2DView_nwe0025"
         inkscape:connector-curvature="0" />
      <path
         style="fill:none;fill-rule:evenodd;stroke:#000000;stroke-width:2.86108694;stroke-miterlimit:4;stroke-dasharray:none;stroke-opacity:1;fill-opacity:1"
         d="M -21.192715,72.120895 A 16,16 0 0 0 -5.19272,56.1209"
         id="Shape2DView_nwe0026"
         inkscape:connector-curvature="0" />
      <path
         style="fill:none;fill-rule:evenodd;stroke:#000000;stroke-width:2.86108694;stroke-miterlimit:4;stroke-dasharray:none;stroke-opacity:1;fill-opacity:1"
         d="m -5.192715,56.120895 h -14"
         id="Shape2DView_nwe0027"
         inkscape:connector-curvature="0" />
      <path
         style="fill:none;fill-rule:evenodd;stroke:#000000;stroke-width:2.86108694;stroke-miterlimit:4;stroke-dasharray:none;stroke-opacity:1;fill-opacity:1"
         d="M -19.192715,56.120895 V 2"
         id="Shape2DView_nwe0028"
         inkscape:connector-curvature="0" />
      <path
         style="fill:none;fill-rule:evenodd;stroke:#000000;stroke-width:2.86108694;stroke-miterlimit:4;stroke-dasharray:none;stroke-opacity:1;fill-opacity:1"
         d="m -25.87704,72.120895 h 4.684325"
         id="Shape2DView_nwe0029"
         inkscape:connector-curvature="0" />
      <path
         style="fill:none;fill-rule:evenodd;stroke:#000000;stroke-width:2.86108694;stroke-miterlimit:4;stroke-dasharray:none;stroke-opacity:1;fill-opacity:1"
         d="m -21.192715,72.120895 v -14"
         id="Shape2DView_nwe0030"
         inkscape:connector-curvature="0" />
      <path
         style="fill:none;fill-rule:evenodd;stroke:#000000;stroke-width:2.86108694;stroke-miterlimit:4;stroke-dasharray:none;stroke-opacity:1;fill-opacity:1"
         d="M -21.192715,58.120895 A 2,2 0 0 0 -19.1927,56.1209"
         id="Shape2DView_nwe0031"
         inkscape:connector-curvature="0" />
      <path
         style="fill:none;fill-rule:evenodd;stroke:#000000;stroke-width:2.86108694;stroke-miterlimit:4;stroke-dasharray:none;stroke-opacity:1;fill-opacity:1"
         d="M -38.983473,65.298118 A 16,16 0 0 0 -25.877,72.1209"
         id="Shape2DView_nwe0032"
         inkscape:connector-curvature="0" />
      <path
         style="fill:none;fill-rule:evenodd;stroke:#000000;stroke-width:2.86108694;stroke-miterlimit:4;stroke-dasharray:none;stroke-opacity:1;fill-opacity:1"
         d="m -25.87704,72.120895 v -14"
         id="Shape2DView_nwe0033"
         inkscape:connector-curvature="0" />
      <path
         style="fill:none;fill-rule:evenodd;stroke:#000000;stroke-width:2.86108694;stroke-miterlimit:4;stroke-dasharray:none;stroke-opacity:1;fill-opacity:1"
         d="m -25.87704,58.120895 h 4.684325"
         id="Shape2DView_nwe0034"
         inkscape:connector-curvature="0" />
      <path
         style="fill:none;fill-rule:evenodd;stroke:#000000;stroke-width:2.86108694;stroke-miterlimit:4;stroke-dasharray:none;stroke-opacity:1;fill-opacity:1"
         d="m -53.066076,45.186077 14.082603,20.112041"
         id="Shape2DView_nwe0035"
         inkscape:connector-curvature="0" />
      <path
         style="fill:none;fill-rule:evenodd;stroke:#000000;stroke-width:2.86108694;stroke-miterlimit:4;stroke-dasharray:none;stroke-opacity:1;fill-opacity:1"
         d="m -38.983473,65.298118 11.468128,-8.03007"
         id="Shape2DView_nwe0036"
         inkscape:connector-curvature="0" />
      <path
         style="fill:none;fill-rule:evenodd;stroke:#000000;stroke-width:2.86108694;stroke-miterlimit:4;stroke-dasharray:none;stroke-opacity:1;fill-opacity:1"
         d="M -27.515345,57.268048 A 2,2 0 0 0 -25.877,58.1209"
         id="Shape2DView_nwe0037"
         inkscape:connector-curvature="0" />
      <path
         style="fill:none;fill-rule:evenodd;stroke:#000000;stroke-width:2.86108694;stroke-miterlimit:4;stroke-dasharray:none;stroke-opacity:1;fill-opacity:1"
         d="m -53.066076,45.186077 11.468129,-8.03007"
         id="Shape2DView_nwe0038"
         inkscape:connector-curvature="0" />
      <path
         style="fill:none;fill-rule:evenodd;stroke:#000000;stroke-width:2.86108694;stroke-miterlimit:4;stroke-dasharray:none;stroke-opacity:1;fill-opacity:1"
         d="m -41.597947,37.156007 14.082602,20.112041"
         id="Shape2DView_nwe0039"
         inkscape:connector-curvature="0" />
      <title
         id="title4301">Shape2DView</title>
    </g>
    <path
       style="fill:#008dad;fill-opacity:0.94117647;stroke:#000000;stroke-width:0.60567379;stroke-miterlimit:4;stroke-dasharray:none;stroke-opacity:1"
       d="m 70.964073,27.326928 c 0.977687,-8.038615 6.165618,-14.495569 12.954353,-16.123126 0.78635,-0.188522 1.488387,-0.343316 1.560083,-0.343985 0.0717,-6.7e-4 0.130356,3.295808 0.130356,7.325506 v 7.326725 l -0.657988,0.563214 c -0.361894,0.309767 -0.809856,0.845213 -0.99547,1.189878 l -0.337482,0.626665 h -6.361277 -6.361277 z"
       id="path4354"
       inkscape:connector-curvature="0"
       transform="matrix(0.26458333,0,0,0.26458333,0,263.13332)" />
    <path
       style="fill:#008dad;fill-opacity:0.94117647;stroke:#000000;stroke-width:0.60567379;stroke-miterlimit:4;stroke-dasharray:none;stroke-opacity:1"
       d="m 88.911221,18.07164 v -7.213041 h 0.955946 0.955945 v 7.213041 7.213042 h -0.955945 -0.955946 z"
       id="path4356"
       inkscape:connector-curvature="0"
       transform="matrix(0.26458333,0,0,0.26458333,0,263.13332)" />
    <path
       style="fill:#008dad;fill-opacity:0.94117647;stroke:#000000;stroke-width:0.60567379;stroke-miterlimit:4;stroke-dasharray:none;stroke-opacity:1"
       d="m 94.406513,25.681599 c -0.05898,-0.05898 -0.107237,-3.416328 -0.107237,-7.460773 v -7.353537 l 0.564877,0.09632 c 2.173853,0.370675 4.674525,1.46319 6.601387,2.884071 1.07648,0.793797 3.43604,3.149782 3.43604,3.430826 0,0.06627 -0.68437,0.670394 -1.52082,1.342493 -0.83646,0.6721 -3.17372,2.559813 -5.193918,4.194918 -2.0202,1.635105 -3.721348,2.924662 -3.780329,2.865682 z"
       id="path4358"
       inkscape:connector-curvature="0"
       transform="matrix(0.26458333,0,0,0.26458333,0,263.13332)" />
    <path
       style="fill:#008dad;fill-opacity:0.94117647;stroke:#000000;stroke-width:0.60567379;stroke-miterlimit:4;stroke-dasharray:none;stroke-opacity:1"
       d="m 103.78048,40.286442 c -4.714699,-7.780868 -6.869501,-11.487648 -6.765691,-11.638626 0.179372,-0.260874 9.829611,-8.057721 9.966271,-8.052183 0.1003,0.0041 13.6644,22.373504 13.83302,22.81292 0.0727,0.18942 -1.30183,1.401354 -4.85375,4.279616 -2.72533,2.208449 -5.02415,4.015363 -5.10849,4.015363 -0.0843,0 -3.26645,-5.137691 -7.07136,-11.41709 z"
       id="path4360"
       inkscape:connector-curvature="0"
       transform="matrix(0.26458333,0,0,0.26458333,0,263.13332)" />
    <path
       style="fill:#008dad;fill-opacity:0.94117647;stroke:#000000;stroke-width:0.60567379;stroke-miterlimit:4;stroke-dasharray:none;stroke-opacity:1"
       d="M 70.835166,65.173669 V 31.715586 h 6.257096 6.257096 v 33.458083 33.458084 h -6.257096 -6.257096 z"
       id="path4362"
       inkscape:connector-curvature="0"
       transform="matrix(0.26458333,0,0,0.26458333,0,263.13332)" />
    <path
       style="fill:#008dad;fill-opacity:0.94117647;stroke:#000000;stroke-width:0.60567379;stroke-miterlimit:4;stroke-dasharray:none;stroke-opacity:1"
       d="m 68.575659,112.16202 v -7.32673 l 0.671255,-0.57457 c 0.36919,-0.31601 0.769748,-0.81235 0.890128,-1.10297 l 0.218872,-0.52841 h 6.409818 c 6.169033,0 6.409818,0.0123 6.409818,0.32842 0,0.7585 -0.576603,3.27643 -1.071635,4.67965 -1.766778,5.0081 -4.914304,8.62802 -9.2493,10.63747 -1.310036,0.60725 -3.301919,1.21386 -3.985896,1.21386 -0.27024,0 -0.29306,-0.57052 -0.29306,-7.32672 z"
       id="path4364"
       inkscape:connector-curvature="0"
       transform="matrix(0.26458333,0,0,0.26458333,0,263.13332)" />
    <path
       style="fill:#008dad;fill-opacity:0.94117647;stroke:#000000;stroke-width:0.60567379;stroke-miterlimit:4;stroke-dasharray:none;stroke-opacity:1"
       d="m 61.275714,112.44951 v -7.21304 h 1.91189 1.911891 v 7.21304 7.21304 h -1.911891 -1.91189 z"
       id="path4366"
       inkscape:connector-curvature="0"
       transform="matrix(0.26458333,0,0,0.26458333,0,263.13332)" />
    <path
       style="fill:#008dad;fill-opacity:0.94117647;stroke:#000000;stroke-width:0.60567379;stroke-miterlimit:4;stroke-dasharray:none;stroke-opacity:1"
       d="m 55.956061,119.14574 c -5.682192,-1.48988 -10.39504,-6.63812 -12.080597,-13.19667 -0.186715,-0.72651 -0.38719,-1.77066 -0.4455,-2.32033 l -0.106018,-0.9994 h 6.364297 6.364297 l 0.260618,0.50398 c 0.14334,0.27719 0.575524,0.77353 0.960409,1.10298 l 0.69979,0.59899 v 7.32673 7.32672 l -0.391068,-0.01 c -0.215088,-0.005 -0.94689,-0.15531 -1.626228,-0.33343 z"
       id="path4368"
       inkscape:connector-curvature="0"
       transform="matrix(0.26458333,0,0,0.26458333,0,263.13332)" />
    <path
       style="fill:#008dad;fill-opacity:0.94117647;stroke:#000000;stroke-width:0.60567379;stroke-miterlimit:4;stroke-dasharray:none;stroke-opacity:1"
       d="M 43.199658,65.173669 V 31.715586 h 6.257096 6.257096 v 33.458083 33.458084 h -6.257096 -6.257096 z"
       id="path4370"
       inkscape:connector-curvature="0"
       transform="matrix(0.26458333,0,0,0.26458333,0,263.13332)" />
    <path
       style="fill:#008dad;fill-opacity:0.94117647;stroke:#000000;stroke-width:0.60567379;stroke-miterlimit:4;stroke-dasharray:none;stroke-opacity:1"
       d="m 42.433366,27.121026 c -0.248438,-0.423929 -0.686046,-0.937644 -0.97246,-1.141589 l -0.520755,-0.370809 v -7.375015 c 0,-4.056258 0.06332,-7.375014 0.140717,-7.375014 0.434911,0 3.15995,0.790481 3.989035,1.157142 4.062953,1.79683 7.589463,5.728229 9.272434,10.337031 0.548191,1.501217 1.190192,4.220258 1.194982,5.06106 l 0.0027,0.477973 H 49.212535 42.88505 Z"
       id="path4372"
       inkscape:connector-curvature="0"
       transform="matrix(0.26458333,0,0,0.26458333,0,263.13332)" />
    <path
       style="fill:#008dad;fill-opacity:0.94117647;stroke:#000000;stroke-width:0.60567379;stroke-miterlimit:4;stroke-dasharray:none;stroke-opacity:1"
       d="M 10.610616,47.746447 C 7.8383749,45.495597 5.588512,43.591667 5.6109208,43.515492 5.7005547,43.210793 19.404039,20.676039 19.521954,20.639436 c 0.220508,-0.06845 10.034768,7.985957 10.012248,8.216894 -0.01965,0.201453 -13.516166,22.615168 -13.772139,22.871434 -0.06105,0.06112 -2.379206,-1.730468 -5.151447,-3.981317 z"
       id="path4374"
       inkscape:connector-curvature="0"
       transform="matrix(0.26458333,0,0,0.26458333,0,263.13332)" />
    <path
       style="fill:#008dad;fill-opacity:0.94117647;stroke:#000000;stroke-width:0.60567379;stroke-miterlimit:4;stroke-dasharray:none;stroke-opacity:1"
       d="m 26.859582,21.644765 c -2.811173,-2.276675 -5.142233,-4.232434 -5.180133,-4.346133 -0.125836,-0.377509 3.275776,-3.521917 4.749637,-4.390506 1.329892,-0.783744 3.789373,-1.712611 5.168873,-1.952117 l 0.651781,-0.113162 v 7.384468 c 0,4.061457 -0.06276,7.423256 -0.139467,7.470663 -0.07671,0.04741 -2.439518,-1.776538 -5.250691,-4.053213 z"
       id="path4376"
       inkscape:connector-curvature="0"
       transform="matrix(0.26458333,0,0,0.26458333,0,263.13332)" />
    <path
       style="fill:none;fill-opacity:0.94117647;stroke:#000000;stroke-width:0.60567379;stroke-miterlimit:4;stroke-dasharray:none;stroke-opacity:1"
       d="m 35.552096,18.07164 v -7.213041 h 0.955946 0.955945 v 7.213041 7.213042 h -0.955945 -0.955946 z"
       id="path4378"
       inkscape:connector-curvature="0"
       transform="matrix(0.26458333,0,0,0.26458333,0,263.13332)" />
    <path
       style="fill:#008dad;fill-opacity:0.94117647;stroke:#000000;stroke-width:0.60567379;stroke-miterlimit:4;stroke-dasharray:none;stroke-opacity:1"
       d="m 35.977034,18.07164 v -6.865425 h 0.521424 0.521425 v 6.865425 6.865425 h -0.521425 -0.521424 z"
       id="path4388"
       inkscape:connector-curvature="0"
       transform="matrix(0.26458333,0,0,0.26458333,0,263.13332)" />
  </g>
</svg>
