<?xml version="1.0" encoding="UTF-8" standalone="no"?>
<!-- Created with Inkscape (http://www.inkscape.org/) -->

<svg
   width="24"
   height="17"
   viewBox="0 0 24 17"
   version="1.1"
   id="svg1"
   sodipodi:docname="BaseShape4.svg"
   xml:space="preserve"
   inkscape:export-filename="BaseShape_Sel.svg"
   inkscape:export-xdpi="96.2588"
   inkscape:export-ydpi="96.2588"
   inkscape:version="1.3.2 (091e20e, 2023-11-25, custom)"
   xmlns:inkscape="http://www.inkscape.org/namespaces/inkscape"
   xmlns:sodipodi="http://sodipodi.sourceforge.net/DTD/sodipodi-0.dtd"
   xmlns="http://www.w3.org/2000/svg"
   xmlns:svg="http://www.w3.org/2000/svg"><sodipodi:namedview
     id="namedview1"
     pagecolor="#ffffff"
     bordercolor="#666666"
     borderopacity="1.0"
     inkscape:showpageshadow="2"
     inkscape:pageopacity="0.0"
     inkscape:pagecheckerboard="0"
     inkscape:deskcolor="#d1d1d1"
     inkscape:zoom="8.0130212"
     inkscape:cx="18.345141"
     inkscape:cy="40.496586"
     inkscape:window-width="1680"
     inkscape:window-height="979"
     inkscape:window-x="-8"
     inkscape:window-y="-8"
     inkscape:window-maximized="1"
     inkscape:current-layer="svg1"
     showgrid="true"><inkscape:grid
       id="grid16"
       units="mm"
       originx="34.015625"
       originy="1.5"
       spacingx="3.7795276"
       spacingy="3.7795276"
       empcolor="#3f3fff"
       empopacity="0.25098039"
       color="#3f3fff"
       opacity="0.1254902"
       empspacing="5"
       dotted="false"
       gridanglex="30"
       gridanglez="30"
       visible="true" /></sodipodi:namedview><defs
     id="defs1" /><path
     id="rect1"
     style="color:#000000;fill:#a40000;stroke-linecap:round;stroke-linejoin:round;-inkscape-stroke:none"
     d="M 1.5,0 A 1.50015,1.50015 0 0 0 0,1.5 v 6 H 2 V 2 H 5.939453 V 0 Z m 6.439453,0 v 2 h 8 V 0 Z m 10,0 V 2 H 22 v 5.5 h 2 v -6 A 1.50015,1.50015 0 0 0 22.5,0 Z M 0,9.5 v 6 A 1.50015,1.50015 0 0 0 1.5,17 H 5.939453 V 15 H 2 V 9.5 Z m 22,0 V 15 h -4.060547 v 2 H 22.5 A 1.50015,1.50015 0 0 0 24,15.5 v -6 z M 7.939453,15 v 2 h 8 v -2 z" /></svg>
