<?xml version="1.0" encoding="UTF-8" standalone="no"?>
<!-- Created with Inkscape (http://www.inkscape.org/) -->

<svg
   width="64"
   height="64"
   id="svg2869"
   version="1.1"
   viewBox="0 0 64 64"
   xmlns:xlink="http://www.w3.org/1999/xlink"
   xmlns="http://www.w3.org/2000/svg"
   xmlns:svg="http://www.w3.org/2000/svg"
   xmlns:rdf="http://www.w3.org/1999/02/22-rdf-syntax-ns#"
   xmlns:cc="http://creativecommons.org/ns#"
   xmlns:dc="http://purl.org/dc/elements/1.1/">
  <defs
     id="defs2871">
    <linearGradient
       id="linearGradient3815">
      <stop
         style="stop-color:#3465a4;stop-opacity:1"
         offset="0"
         id="stop3817" />
      <stop
         style="stop-color:#729fcf;stop-opacity:1"
         offset="1"
         id="stop3819" />
    </linearGradient>
    <linearGradient
       id="linearGradient2">
      <stop
         style="stop-color:#73d216;stop-opacity:1;"
         offset="0"
         id="stop1" />
      <stop
         style="stop-color:#8ae234;stop-opacity:1;"
         offset="1"
         id="stop2" />
    </linearGradient>
    <linearGradient
       xlink:href="#linearGradient3815"
       id="linearGradient46"
       gradientUnits="userSpaceOnUse"
       x1="-219.38676"
       y1="-112.62828"
       x2="-123.00488"
       y2="-103.29395" />
    <linearGradient
       xlink:href="#linearGradient2"
       id="linearGradient47"
       gradientUnits="userSpaceOnUse"
       x1="-319.01953"
       y1="-213.14844"
       x2="-172.39369"
       y2="-208.25739" />
  </defs>
  <metadata
     id="metadata2874">
    <rdf:RDF>
      <cc:Work
         rdf:about="">
        <dc:format>image/svg+xml</dc:format>
        <dc:type
           rdf:resource="http://purl.org/dc/dcmitype/StillImage" />
        <dc:creator>
          <cc:Agent>
            <dc:title>[maxwxyz]</dc:title>
          </cc:Agent>
        </dc:creator>
        <dc:relation>https://www.freecad.org/wiki/index.php?title=Artwork</dc:relation>
        <dc:publisher>
          <cc:Agent>
            <dc:title>FreeCAD</dc:title>
          </cc:Agent>
        </dc:publisher>
        <dc:identifier>FreeCAD/src/Mod/Sketcher/Gui/Resources/icons/Sketcher_CreateArc.svg</dc:identifier>
        <dc:rights>
          <cc:Agent>
            <dc:title>FreeCAD LGPL2+</dc:title>
          </cc:Agent>
        </dc:rights>
        <dc:date>2023-12-19</dc:date>
      </cc:Work>
    </rdf:RDF>
  </metadata>
  <g
     id="g44"
     transform="matrix(0.19046319,0,0,0.18947786,71.960813,62.535362)"
     style="stroke-width:5.26399">
    <path
       d="m -208.58984,-286.18945 c -3.46991,0.11925 -6.70256,0.98654 -9.57422,2.64453 l -133.62696,77.14844 c 11.48637,-6.63156 28.76878,-0.60046 43.76368,15.27148 l 61.67382,65.2793 133.62696,-77.14844 -61.67383,-65.28125 c -11.24626,-11.90381 -23.77972,-18.27181 -34.18945,-17.91406 z"
       style="fill:#73d216;fill-rule:evenodd;stroke:#17220b;stroke-width:10.52798441;stroke-linecap:round;stroke-linejoin:round;stroke-dasharray:none;stroke-opacity:1"
       id="path43" />
    <path
       d="m -256.63086,-103.29492 -47.16211,-49.91992 -19.65234,11.3457 z"
       style="fill:#3465a4;fill-rule:evenodd;stroke:#0c1522;stroke-width:10.52799999;stroke-linecap:round;stroke-linejoin:round;stroke-dasharray:none;stroke-opacity:1"
       id="path41" />
    <path
       d="m -56.191406,-141.86914 -133.626954,77.15039 v 30.859375 l 133.626954,-77.148435 z"
       style="fill:#729fcf;fill-rule:evenodd;stroke:#0c1522;stroke-width:10.52798441;stroke-linecap:round;stroke-linejoin:round;stroke-dasharray:none;stroke-opacity:1"
       id="path40" />
    <path
       d="M -189.81836,-33.859375 V -64.71875 l -66.8125,-38.57617 -66.81445,-38.57422 v 30.86133 z"
       style="fill:#3465a4;fill-rule:evenodd;stroke:#0c1522;stroke-width:10.52798441;stroke-linecap:round;stroke-linejoin:round;stroke-dasharray:none;stroke-opacity:1"
       id="path39" />
    <path
       d="m -123.00586,-180.44336 -133.625,77.14844 66.8125,38.57617 133.626954,-77.15039 z"
       style="fill:#3465a4;fill-rule:evenodd;stroke:#0c1522;stroke-width:10.528;stroke-linecap:round;stroke-linejoin:round;stroke-dasharray:none;stroke-opacity:1"
       id="path38" />
    <path
       d="m -112.72656,-202.99414 -133.62696,77.14844 -10.27734,22.55078 133.625,-77.14844 z"
       style="fill:#8ae234;fill-rule:evenodd;stroke:#17220b;stroke-width:10.52798441;stroke-linecap:round;stroke-linejoin:round;stroke-dasharray:none;stroke-opacity:1"
       id="path37" />
    <path
       d="m -123.00586,-168.27344 -112.54687,64.97852 45.73437,26.406248 112.548829,-64.980468 z"
       style="fill:url(#linearGradient46);fill-rule:evenodd;stroke:#729fcf;stroke-width:10.52798441;stroke-linecap:round;stroke-linejoin:miter;stroke-dasharray:none;stroke-opacity:1"
       id="path45" />
    <path
       d="m -342.21484,-209.03906 c -3.46979,0.11915 -6.70459,0.98469 -9.57618,2.64258 -0.69897,0.40355 -1.36502,0.85215 -2.0039,1.33789 -0.21845,0.16607 -0.41559,0.35977 -0.62695,0.53515 -0.40857,0.33903 -0.82119,0.6739 -1.20313,1.04688 -0.23085,0.22544 -0.43909,0.47927 -0.66016,0.71679 -0.33206,0.3568 -0.66866,0.70842 -0.97851,1.0918 -0.21986,0.27202 -0.41835,0.56847 -0.62695,0.85352 -0.28398,0.38807 -0.57099,0.772 -0.83399,1.18359 -0.19312,0.3022 -0.36708,0.62493 -0.54883,0.93945 -0.24476,0.42365 -0.49083,0.84563 -0.71484,1.29102 -0.17627,0.35042 -0.3347,0.71854 -0.49805,1.08203 -0.19823,0.44116 -0.39708,0.88196 -0.57617,1.3418 -0.15082,0.38724 -0.2847,0.78937 -0.42187,1.18945 -0.16016,0.46716 -0.3195,0.93581 -0.46094,1.41992 -0.12179,0.41687 -0.23006,0.84636 -0.33789,1.27539 -0.10253,0.40798 -0.19726,0.82159 -0.28711,1.24024 -0.26481,1.23391 -0.39135,2.57544 -0.54492,3.89648 -0.1044,0.89825 -0.2582,1.76002 -0.31055,2.69531 -0.0755,1.34922 -0.0204,2.7815 0.0137,4.20118 0.0223,0.92747 -0.0168,1.8167 0.0527,2.77148 0.11743,1.6108 0.3831,3.29834 0.63671,4.97852 0.12565,0.83236 0.17846,1.6291 0.33789,2.47656 0.48218,2.56278 1.10864,5.18781 1.9043,7.86523 6.20485,20.87959 20.82098,40.59748 37.03516,49.95899 v -30.86133 c -5.40473,-3.12038 -10.27755,-9.69248 -12.34571,-16.65234 -0.25916,-0.87199 -0.45976,-1.72491 -0.61914,-2.56055 -0.0523,-0.27418 -0.0755,-0.53325 -0.11718,-0.80274 -0.0864,-0.55813 -0.16755,-1.113 -0.20899,-1.64843 -0.0229,-0.29594 -0.0199,-0.5751 -0.0293,-0.86328 -0.0155,-0.4779 -0.0273,-0.95178 -0.006,-1.40625 0.0143,-0.30507 0.0493,-0.59321 0.0801,-0.88672 0.0562,-0.53615 0.11036,-1.07452 0.22071,-1.56836 0.0103,-0.0462 0.0244,-0.089 0.0352,-0.13477 0.0306,-0.12976 0.0673,-0.25432 0.10157,-0.38086 0.051,-0.18787 0.10292,-0.37416 0.16211,-0.55468 0.0429,-0.13091 0.0895,-0.25786 0.13671,-0.38477 0.0593,-0.15933 0.12148,-0.31592 0.1875,-0.46875 0.0547,-0.12658 0.11065,-0.25107 0.16993,-0.37305 0.0761,-0.15657 0.15662,-0.30828 0.24023,-0.45703 0.0606,-0.10774 0.12105,-0.21484 0.18555,-0.31836 0.0866,-0.13901 0.1798,-0.27116 0.27343,-0.40234 0.0739,-0.10347 0.1464,-0.20819 0.22461,-0.30664 0.10164,-0.12797 0.20942,-0.24793 0.31836,-0.36719 0.0784,-0.0858 0.15422,-0.17471 0.23633,-0.25586 0.12606,-0.12458 0.26162,-0.23621 0.39649,-0.34961 0.0766,-0.0644 0.14907,-0.13456 0.22851,-0.19531 0.21681,-0.16569 0.44399,-0.31983 0.68164,-0.45703 3.82866,-2.21061 9.58947,-0.20074 14.58789,5.08984 l 61.67383,65.2793 10.27734,-22.55078 -61.67382,-65.2793 c -11.24618,-11.90395 -23.77813,-18.27151 -34.1875,-17.91406 z"
       style="fill:#73d216;fill-rule:evenodd;stroke:#17220b;stroke-width:10.52798441;stroke-linecap:round;stroke-linejoin:round;stroke-dasharray:none;stroke-opacity:1"
       id="path44" />
    <path
       d="m -208.22852,-275.6582 c -1.94159,0.0667 -3.38193,0.49885 -4.66601,1.24023 l -106.125,61.26953 c 6.61944,3.69382 12.98053,8.78356 18.65234,14.78711 l 55.95508,59.22656 114.86524,-66.31835 -52.51368,-55.58594 c -4.92521,-5.21318 -10.00943,-9.05182 -14.60742,-11.44141 -4.59799,-2.38959 -8.64579,-3.2779 -11.56055,-3.17773 z"
       style="fill:#73d216;fill-rule:evenodd;stroke:url(#linearGradient47);stroke-width:10.52798441;stroke-linecap:round;stroke-linejoin:round;stroke-dasharray:none;stroke-opacity:1"
       id="path46" />
    <path
       d="m -323.44531,-141.86914 19.65234,-11.3457 -14.51172,-15.35938 c -4.99842,-5.29058 -10.75923,-7.30045 -14.58789,-5.08984 -0.23825,0.13755 -0.46433,0.29085 -0.68164,0.45703 -0.0796,0.0608 -0.15175,0.13076 -0.22851,0.19531 -0.1345,0.11314 -0.27075,0.22534 -0.39649,0.34961 -0.0822,0.0812 -0.15791,0.17002 -0.23633,0.25586 -0.10886,0.11916 -0.21679,0.23934 -0.31836,0.36719 -0.0781,0.0984 -0.1508,0.20324 -0.22461,0.30664 -0.0936,0.13111 -0.18687,0.2634 -0.27343,0.40234 -0.0644,0.10345 -0.12503,0.21069 -0.18555,0.31836 -0.0836,0.14881 -0.16412,0.3004 -0.24023,0.45703 -0.0593,0.12191 -0.11528,0.24654 -0.16993,0.37305 -0.0659,0.15264 -0.12828,0.30962 -0.1875,0.46875 -0.0472,0.12688 -0.0938,0.25389 -0.13671,0.38477 -0.0592,0.18067 -0.11112,0.36665 -0.16211,0.55468 -0.0343,0.12641 -0.071,0.25124 -0.10157,0.38086 -0.0207,0.0877 -0.0358,0.1804 -0.0547,0.26953 -0.0966,0.45465 -0.1498,0.94381 -0.20118,1.4336 -0.0307,0.29284 -0.0657,0.58238 -0.0801,0.88672 -0.0213,0.45402 -0.01,0.92885 0.006,1.40625 0.009,0.28763 0.006,0.56792 0.0293,0.86328 0.0414,0.53485 0.12271,1.09094 0.20899,1.64843 0.0417,0.26926 0.0649,0.52879 0.11718,0.80274 0.15937,0.83551 0.36002,1.6887 0.61914,2.56055 2.06816,6.95986 6.94098,13.53196 12.34571,16.65234 z"
       style="fill:#4e9a06;fill-rule:evenodd;stroke:#17220b;stroke-width:10.52799999;stroke-linecap:round;stroke-linejoin:round;stroke-dasharray:none;stroke-opacity:1"
       id="path42" />
  </g>
</svg>
