<?xml version="1.0" encoding="UTF-8"?>
<!DOCTYPE svg PUBLIC "-//W3C//DTD SVG 1.1//EN" "http://www.w3.org/Graphics/SVG/1.1/DTD/svg11.dtd">
<svg version="1.2" width="18.33mm" height="18.33mm" viewBox="0 0 1833 1833" preserveAspectRatio="xMidYMid" fill-rule="evenodd" stroke-width="28.222" stroke-linejoin="round" xmlns="http://www.w3.org/2000/svg" xmlns:ooo="http://xml.openoffice.org/svg/export" xmlns:xlink="http://www.w3.org/1999/xlink" xmlns:presentation="http://sun.com/xmlns/staroffice/presentation" xmlns:smil="http://www.w3.org/2001/SMIL20/" xmlns:anim="urn:oasis:names:tc:opendocument:xmlns:animation:1.0" xml:space="preserve">
 <defs class="ClipPathGroup">
  <clipPath id="presentation_clip_path" clipPathUnits="userSpaceOnUse">
   <rect x="0" y="0" width="1833" height="1833"/>
  </clipPath>
  <clipPath id="presentation_clip_path_shrink" clipPathUnits="userSpaceOnUse">
   <rect x="1" y="1" width="1830" height="1830"/>
  </clipPath>
 </defs>
 <defs class="TextShapeIndex">
  <g ooo:slide="id1" ooo:id-list="id3 id4 id5 id6 id7 id8 id9 id10 id11 id12 id13 id14 id15 id16 id17 id18 id19 id20 id21 id22 id23 id24 id25 id26 id27 id28 id29 id30 id31 id32 id33 id34 id35 id36 id37 id38 id39 id40 id41 id42 id43 id44 id45 id46 id47 id48 id49 id50 id51 id52 id53 id54 id55 id56 id57 id58 id59 id60 id61 id62 id63 id64 id65 id66 id67 id68 id69 id70 id71 id72 id73 id74 id75 id76 id77 id78 id79 id80 id81 id82 id83 id84 id85 id86 id87 id88 id89 id90 id91"/>
 </defs>
 <defs class="EmbeddedBulletChars">
  <g id="bullet-char-template-57356" transform="scale(0.00048828125,-0.00048828125)">
   <path d="M 580,1141 L 1163,571 580,0 -4,571 580,1141 Z"/>
  </g>
  <g id="bullet-char-template-57354" transform="scale(0.00048828125,-0.00048828125)">
   <path d="M 8,1128 L 1137,1128 1137,0 8,0 8,1128 Z"/>
  </g>
  <g id="bullet-char-template-10146" transform="scale(0.00048828125,-0.00048828125)">
   <path d="M 174,0 L 602,739 174,1481 1456,739 174,0 Z M 1358,739 L 309,1346 659,739 1358,739 Z"/>
  </g>
  <g id="bullet-char-template-10132" transform="scale(0.00048828125,-0.00048828125)">
   <path d="M 2015,739 L 1276,0 717,0 1260,543 174,543 174,936 1260,936 717,1481 1274,1481 2015,739 Z"/>
  </g>
  <g id="bullet-char-template-10007" transform="scale(0.00048828125,-0.00048828125)">
   <path d="M 0,-2 C -7,14 -16,27 -25,37 L 356,567 C 262,823 215,952 215,954 215,979 228,992 255,992 264,992 276,990 289,987 310,991 331,999 354,1012 L 381,999 492,748 772,1049 836,1024 860,1049 C 881,1039 901,1025 922,1006 886,937 835,863 770,784 769,783 710,716 594,584 L 774,223 C 774,196 753,168 711,139 L 727,119 C 717,90 699,76 672,76 641,76 570,178 457,381 L 164,-76 C 142,-110 111,-127 72,-127 30,-127 9,-110 8,-76 1,-67 -2,-52 -2,-32 -2,-23 -1,-13 0,-2 Z"/>
  </g>
  <g id="bullet-char-template-10004" transform="scale(0.00048828125,-0.00048828125)">
   <path d="M 285,-33 C 182,-33 111,30 74,156 52,228 41,333 41,471 41,549 55,616 82,672 116,743 169,778 240,778 293,778 328,747 346,684 L 369,508 C 377,444 397,411 428,410 L 1163,1116 C 1174,1127 1196,1133 1229,1133 1271,1133 1292,1118 1292,1087 L 1292,965 C 1292,929 1282,901 1262,881 L 442,47 C 390,-6 338,-33 285,-33 Z"/>
  </g>
  <g id="bullet-char-template-9679" transform="scale(0.00048828125,-0.00048828125)">
   <path d="M 813,0 C 632,0 489,54 383,161 276,268 223,411 223,592 223,773 276,916 383,1023 489,1130 632,1184 813,1184 992,1184 1136,1130 1245,1023 1353,916 1407,772 1407,592 1407,412 1353,268 1245,161 1136,54 992,0 813,0 Z"/>
  </g>
  <g id="bullet-char-template-8226" transform="scale(0.00048828125,-0.00048828125)">
   <path d="M 346,457 C 273,457 209,483 155,535 101,586 74,649 74,723 74,796 101,859 155,911 209,963 273,989 346,989 419,989 480,963 531,910 582,859 608,796 608,723 608,648 583,586 532,535 482,483 420,457 346,457 Z"/>
  </g>
  <g id="bullet-char-template-8211" transform="scale(0.00048828125,-0.00048828125)">
   <path d="M -4,459 L 1135,459 1135,606 -4,606 -4,459 Z"/>
  </g>
  <g id="bullet-char-template-61548" transform="scale(0.00048828125,-0.00048828125)">
   <path d="M 173,740 C 173,903 231,1043 346,1159 462,1274 601,1332 765,1332 928,1332 1067,1274 1183,1159 1299,1043 1357,903 1357,740 1357,577 1299,437 1183,322 1067,206 928,148 765,148 601,148 462,206 346,322 231,437 173,577 173,740 Z"/>
  </g>
 </defs>
 <g>
  <g id="id2" class="Master_Slide">
   <g id="bg-id2" class="Background"/>
   <g id="bo-id2" class="BackgroundObjects"/>
  </g>
 </g>
 <g class="SlideGroup">
  <g>
   <g id="container-id1">
    <g id="id1" class="Slide" clip-path="url(#presentation_clip_path)">
     <g class="Page">
      <g class="Graphic">
       <g id="id3">
        <rect class="BoundingBox" stroke="none" fill="none" x="675" y="0" width="1296" height="1296"/>
        <path fill="rgb(0,121,173)" fill-opacity="0.941" stroke="rgb(255,255,255)" stroke-opacity="0.941" d="M 904,114 L 904,245 904,744 C 904,953 1076,1125 1285,1125 L 1593,1125 1725,1125 1725,862 1593,862 1285,862 C 1218,862 1167,811 1167,744 L 1167,245 1167,114 904,114 904,114 Z"/>
        <path fill="none" stroke="rgb(0,0,0)" stroke-width="74" stroke-linejoin="round" stroke-linecap="square" d="M 904,114 L 904,245 904,744 C 904,953 1076,1125 1285,1125 L 1593,1125 1725,1125 1725,862 1593,862 1285,862 C 1218,862 1167,811 1167,744 L 1167,245 1167,114 904,114 904,114 Z"/>
        <path fill="none" stroke="rgb(0,0,0)" stroke-width="74" stroke-linejoin="round" stroke-linecap="square" d="M 1249,1103 L 1249,880"/>
        <path fill="none" stroke="rgb(0,0,0)" stroke-width="74" stroke-linejoin="round" stroke-linecap="square" d="M 929,744 L 1142,744"/>
       </g>
      </g>
      <g class="com.sun.star.drawing.PolyPolygonShape">
       <g id="id4">
        <rect class="BoundingBox" stroke="none" fill="none" x="451" y="1597" width="422" height="138"/>
        <path fill="rgb(211,215,207)" stroke="none" d="M 718,1733 L 451,1598 872,1624 718,1733 Z"/>
       </g>
      </g>
      <g class="com.sun.star.drawing.PolyPolygonShape">
       <g id="id5">
        <rect class="BoundingBox" stroke="none" fill="none" x="370" y="1557" width="519" height="112"/>
        <path fill="rgb(211,215,207)" stroke="none" d="M 887,1613 L 810,1668 559,1652 371,1557 887,1589 887,1613 Z"/>
       </g>
      </g>
      <g class="com.sun.star.drawing.PolyPolygonShape">
       <g id="id6">
        <rect class="BoundingBox" stroke="none" fill="none" x="288" y="1515" width="601" height="122"/>
        <path fill="rgb(212,216,209)" stroke="none" d="M 887,1613 L 856,1635 478,1611 289,1516 887,1553 887,1613 Z"/>
       </g>
      </g>
      <g class="com.sun.star.drawing.PolyPolygonShape">
       <g id="id7">
        <rect class="BoundingBox" stroke="none" fill="none" x="207" y="1474" width="682" height="128"/>
        <path fill="rgb(214,218,210)" stroke="none" d="M 887,1601 L 396,1570 207,1474 887,1517 887,1601 Z"/>
       </g>
      </g>
      <g class="com.sun.star.drawing.PolyPolygonShape">
       <g id="id8">
        <rect class="BoundingBox" stroke="none" fill="none" x="127" y="1433" width="762" height="133"/>
        <path fill="rgb(215,219,212)" stroke="none" d="M 887,1564 L 315,1529 127,1434 887,1481 887,1564 Z"/>
       </g>
      </g>
      <g class="com.sun.star.drawing.PolyPolygonShape">
       <g id="id9">
        <rect class="BoundingBox" stroke="none" fill="none" x="97" y="1395" width="792" height="135"/>
        <path fill="rgb(217,220,213)" stroke="none" d="M 887,1528 L 233,1488 98,1419 98,1396 887,1444 887,1528 Z"/>
       </g>
      </g>
      <g class="com.sun.star.drawing.PolyPolygonShape">
       <g id="id10">
        <rect class="BoundingBox" stroke="none" fill="none" x="97" y="1359" width="792" height="135"/>
        <path fill="rgb(218,221,215)" stroke="none" d="M 887,1492 L 152,1446 98,1419 98,1418 98,1359 887,1409 887,1492 Z"/>
       </g>
      </g>
      <g class="com.sun.star.drawing.PolyPolygonShape">
       <g id="id11">
        <rect class="BoundingBox" stroke="none" fill="none" x="97" y="1322" width="792" height="135"/>
        <path fill="rgb(219,223,216)" stroke="none" d="M 887,1456 L 98,1406 98,1323 887,1372 887,1456 Z"/>
       </g>
      </g>
      <g class="com.sun.star.drawing.PolyPolygonShape">
       <g id="id12">
        <rect class="BoundingBox" stroke="none" fill="none" x="97" y="1287" width="792" height="134"/>
        <path fill="rgb(221,224,218)" stroke="none" d="M 887,1420 L 98,1371 98,1287 887,1336 887,1420 Z"/>
       </g>
      </g>
      <g class="com.sun.star.drawing.PolyPolygonShape">
       <g id="id13">
        <rect class="BoundingBox" stroke="none" fill="none" x="97" y="1250" width="792" height="136"/>
        <path fill="rgb(222,225,219)" stroke="none" d="M 887,1384 L 98,1335 98,1251 887,1300 887,1384 Z"/>
       </g>
      </g>
      <g class="com.sun.star.drawing.PolyPolygonShape">
       <g id="id14">
        <rect class="BoundingBox" stroke="none" fill="none" x="97" y="1214" width="792" height="135"/>
        <path fill="rgb(223,226,221)" stroke="none" d="M 887,1348 L 98,1298 98,1214 887,1264 887,1348 Z"/>
       </g>
      </g>
      <g class="com.sun.star.drawing.PolyPolygonShape">
       <g id="id15">
        <rect class="BoundingBox" stroke="none" fill="none" x="97" y="1178" width="792" height="135"/>
        <path fill="rgb(225,228,222)" stroke="none" d="M 887,1311 L 98,1263 98,1179 887,1228 887,1311 Z"/>
       </g>
      </g>
      <g class="com.sun.star.drawing.PolyPolygonShape">
       <g id="id16">
        <rect class="BoundingBox" stroke="none" fill="none" x="97" y="1142" width="792" height="134"/>
        <path fill="rgb(226,229,224)" stroke="none" d="M 887,1275 L 98,1226 98,1143 887,1191 887,1275 Z"/>
       </g>
      </g>
      <g class="com.sun.star.drawing.PolyPolygonShape">
       <g id="id17">
        <rect class="BoundingBox" stroke="none" fill="none" x="97" y="1106" width="792" height="135"/>
        <path fill="rgb(227,230,225)" stroke="none" d="M 887,1239 L 98,1190 98,1106 887,1156 887,1239 Z"/>
       </g>
      </g>
      <g class="com.sun.star.drawing.PolyPolygonShape">
       <g id="id18">
        <rect class="BoundingBox" stroke="none" fill="none" x="97" y="1069" width="792" height="135"/>
        <path fill="rgb(229,231,227)" stroke="none" d="M 887,1203 L 98,1153 98,1070 887,1119 887,1203 Z"/>
       </g>
      </g>
      <g class="com.sun.star.drawing.PolyPolygonShape">
       <g id="id19">
        <rect class="BoundingBox" stroke="none" fill="none" x="97" y="1034" width="792" height="134"/>
        <path fill="rgb(230,233,228)" stroke="none" d="M 887,1167 L 98,1118 98,1034 887,1083 887,1167 Z"/>
       </g>
      </g>
      <g class="com.sun.star.drawing.PolyPolygonShape">
       <g id="id20">
        <rect class="BoundingBox" stroke="none" fill="none" x="97" y="997" width="792" height="136"/>
        <path fill="rgb(232,234,230)" stroke="none" d="M 887,1131 L 98,1082 98,998 887,1047 887,1131 Z"/>
       </g>
      </g>
      <g class="com.sun.star.drawing.PolyPolygonShape">
       <g id="id21">
        <rect class="BoundingBox" stroke="none" fill="none" x="97" y="961" width="792" height="135"/>
        <path fill="rgb(233,235,231)" stroke="none" d="M 887,1095 L 98,1045 98,962 887,1011 887,1095 Z"/>
       </g>
      </g>
      <g class="com.sun.star.drawing.PolyPolygonShape">
       <g id="id22">
        <rect class="BoundingBox" stroke="none" fill="none" x="97" y="926" width="792" height="134"/>
        <path fill="rgb(234,236,233)" stroke="none" d="M 887,1058 L 98,1010 98,926 887,975 887,1058 Z"/>
       </g>
      </g>
      <g class="com.sun.star.drawing.PolyPolygonShape">
       <g id="id23">
        <rect class="BoundingBox" stroke="none" fill="none" x="97" y="889" width="792" height="134"/>
        <path fill="rgb(236,238,234)" stroke="none" d="M 887,1022 L 98,973 98,890 887,938 887,1022 Z"/>
       </g>
      </g>
      <g class="com.sun.star.drawing.PolyPolygonShape">
       <g id="id24">
        <rect class="BoundingBox" stroke="none" fill="none" x="97" y="853" width="792" height="135"/>
        <path fill="rgb(237,239,236)" stroke="none" d="M 887,986 L 98,937 98,853 887,903 887,986 Z"/>
       </g>
      </g>
      <g class="com.sun.star.drawing.PolyPolygonShape">
       <g id="id25">
        <rect class="BoundingBox" stroke="none" fill="none" x="97" y="816" width="792" height="136"/>
        <path fill="rgb(239,240,237)" stroke="none" d="M 887,950 L 98,901 98,817 887,866 887,950 Z"/>
       </g>
      </g>
      <g class="com.sun.star.drawing.PolyPolygonShape">
       <g id="id26">
        <rect class="BoundingBox" stroke="none" fill="none" x="97" y="781" width="792" height="134"/>
        <path fill="rgb(240,241,239)" stroke="none" d="M 887,914 L 98,865 98,781 887,830 887,914 Z"/>
       </g>
      </g>
      <g class="com.sun.star.drawing.PolyPolygonShape">
       <g id="id27">
        <rect class="BoundingBox" stroke="none" fill="none" x="97" y="744" width="792" height="136"/>
        <path fill="rgb(241,243,240)" stroke="none" d="M 887,878 L 98,829 98,745 887,794 887,878 Z"/>
       </g>
      </g>
      <g class="com.sun.star.drawing.PolyPolygonShape">
       <g id="id28">
        <rect class="BoundingBox" stroke="none" fill="none" x="97" y="708" width="792" height="135"/>
        <path fill="rgb(243,244,242)" stroke="none" d="M 887,842 L 98,792 98,709 887,758 887,842 Z"/>
       </g>
      </g>
      <g class="com.sun.star.drawing.PolyPolygonShape">
       <g id="id29">
        <rect class="BoundingBox" stroke="none" fill="none" x="97" y="672" width="792" height="135"/>
        <path fill="rgb(244,245,243)" stroke="none" d="M 887,805 L 98,757 98,673 887,722 887,805 Z"/>
       </g>
      </g>
      <g class="com.sun.star.drawing.PolyPolygonShape">
       <g id="id30">
        <rect class="BoundingBox" stroke="none" fill="none" x="97" y="636" width="792" height="134"/>
        <path fill="rgb(245,246,245)" stroke="none" d="M 887,769 L 98,720 98,637 887,685 887,769 Z"/>
       </g>
      </g>
      <g class="com.sun.star.drawing.PolyPolygonShape">
       <g id="id31">
        <rect class="BoundingBox" stroke="none" fill="none" x="97" y="600" width="792" height="135"/>
        <path fill="rgb(247,248,246)" stroke="none" d="M 887,660 L 887,661 887,733 98,684 98,600 864,648 887,660 Z"/>
       </g>
      </g>
      <g class="com.sun.star.drawing.PolyPolygonShape">
       <g id="id32">
        <rect class="BoundingBox" stroke="none" fill="none" x="97" y="563" width="792" height="136"/>
        <path fill="rgb(248,249,248)" stroke="none" d="M 887,660 L 887,660 887,697 98,648 98,564 780,607 887,660 Z"/>
       </g>
      </g>
      <g class="com.sun.star.drawing.PolyPolygonShape">
       <g id="id33">
        <rect class="BoundingBox" stroke="none" fill="none" x="97" y="528" width="792" height="134"/>
        <path fill="rgb(250,250,249)" stroke="none" d="M 887,660 L 887,661 98,612 98,528 697,565 887,660 Z"/>
       </g>
      </g>
      <g class="com.sun.star.drawing.PolyPolygonShape">
       <g id="id34">
        <rect class="BoundingBox" stroke="none" fill="none" x="97" y="492" width="712" height="130"/>
        <path fill="rgb(251,251,251)" stroke="none" d="M 808,620 L 98,576 98,492 615,524 808,620 Z"/>
       </g>
      </g>
      <g class="com.sun.star.drawing.PolyPolygonShape">
       <g id="id35">
        <rect class="BoundingBox" stroke="none" fill="none" x="97" y="455" width="628" height="125"/>
        <path fill="rgb(252,253,252)" stroke="none" d="M 724,579 L 98,539 98,456 531,483 724,579 Z"/>
       </g>
      </g>
      <g class="com.sun.star.drawing.PolyPolygonShape">
       <g id="id36">
        <rect class="BoundingBox" stroke="none" fill="none" x="97" y="419" width="545" height="120"/>
        <path fill="rgb(254,254,254)" stroke="none" d="M 641,537 L 98,504 98,420 449,442 641,537 Z"/>
       </g>
      </g>
      <g class="com.sun.star.drawing.PolyPolygonShape">
       <g id="id37">
        <rect class="BoundingBox" stroke="none" fill="none" x="97" y="266" width="461" height="231"/>
        <path fill="rgb(255,255,255)" stroke="none" d="M 98,267 L 557,495 98,467 98,267 Z"/>
       </g>
      </g>
      <g class="com.sun.star.drawing.PolyPolygonShape">
       <g id="id38">
        <rect class="BoundingBox" stroke="none" fill="none" x="69" y="239" width="848" height="1523"/>
        <path fill="none" stroke="rgb(63,63,63)" stroke-width="56" stroke-linejoin="round" d="M 887,660 L 887,1613 718,1733 355,1549 98,1419 98,267 887,660 Z"/>
       </g>
      </g>
      <g class="com.sun.star.drawing.PolyPolygonShape">
       <g id="id39">
        <rect class="BoundingBox" stroke="none" fill="none" x="125" y="311" width="735" height="1398"/>
        <path fill="none" stroke="rgb(255,255,255)" stroke-width="56" stroke-linejoin="miter" d="M 831,696 L 831,1584 727,1674 154,1383 154,357 831,696 Z"/>
       </g>
      </g>
      <g class="com.sun.star.drawing.ClosedBezierShape">
       <g id="id40">
        <rect class="BoundingBox" stroke="none" fill="none" x="718" y="1630" width="131" height="105"/>
        <path fill="rgb(85,87,83)" stroke="none" d="M 718,1733 C 742,1714 753,1684 758,1652 L 847,1630 718,1733 Z"/>
       </g>
      </g>
      <g class="com.sun.star.drawing.ClosedBezierShape">
       <g id="id41">
        <rect class="BoundingBox" stroke="none" fill="none" x="753" y="1609" width="121" height="65"/>
        <path fill="rgb(85,87,83)" stroke="none" d="M 813,1658 L 754,1672 C 756,1661 758,1650 759,1638 L 873,1610 813,1658 Z"/>
       </g>
      </g>
      <g class="com.sun.star.drawing.ClosedBezierShape">
       <g id="id42">
        <rect class="BoundingBox" stroke="none" fill="none" x="756" y="1593" width="133" height="66"/>
        <path fill="rgb(95,97,93)" stroke="none" d="M 888,1598 L 837,1638 757,1658 C 759,1647 760,1635 760,1624 L 886,1593 C 887,1595 888,1596 888,1598 Z"/>
       </g>
      </g>
      <g class="com.sun.star.drawing.ClosedBezierShape">
       <g id="id43">
        <rect class="BoundingBox" stroke="none" fill="none" x="758" y="1582" width="131" height="63"/>
        <path fill="rgb(105,107,103)" stroke="none" d="M 888,1598 L 863,1618 759,1644 C 760,1633 761,1621 761,1611 L 877,1582 C 884,1589 888,1594 888,1598 Z"/>
       </g>
      </g>
      <g class="com.sun.star.drawing.ClosedBezierShape">
       <g id="id44">
        <rect class="BoundingBox" stroke="none" fill="none" x="759" y="1571" width="130" height="60"/>
        <path fill="rgb(115,118,113)" stroke="none" d="M 888,1598 L 887,1599 760,1629 C 761,1618 761,1607 760,1597 L 864,1571 C 879,1582 888,1592 888,1598 Z"/>
       </g>
      </g>
      <g class="com.sun.star.drawing.ClosedBezierShape">
       <g id="id45">
        <rect class="BoundingBox" stroke="none" fill="none" x="759" y="1561" width="123" height="56"/>
        <path fill="rgb(125,128,123)" stroke="none" d="M 760,1583 L 850,1561 C 864,1570 874,1579 881,1586 L 760,1616 C 761,1604 760,1593 760,1583 Z"/>
       </g>
      </g>
      <g class="com.sun.star.drawing.ClosedBezierShape">
       <g id="id46">
        <rect class="BoundingBox" stroke="none" fill="none" x="758" y="1551" width="113" height="52"/>
        <path fill="rgb(136,138,133)" stroke="none" d="M 759,1570 L 833,1551 C 848,1559 860,1568 870,1575 L 760,1602 C 760,1590 760,1580 759,1570 Z"/>
       </g>
      </g>
      <g class="com.sun.star.drawing.ClosedBezierShape">
       <g id="id47">
        <rect class="BoundingBox" stroke="none" fill="none" x="757" y="1542" width="100" height="48"/>
        <path fill="rgb(146,148,142)" stroke="none" d="M 757,1556 L 814,1543 C 829,1549 844,1557 855,1565 L 760,1588 C 759,1576 758,1566 757,1556 Z"/>
       </g>
      </g>
      <g class="com.sun.star.drawing.ClosedBezierShape">
       <g id="id48">
        <rect class="BoundingBox" stroke="none" fill="none" x="755" y="1534" width="86" height="42"/>
        <path fill="rgb(156,158,152)" stroke="none" d="M 755,1543 L 791,1534 C 809,1540 825,1547 840,1555 L 759,1575 C 758,1562 756,1551 755,1543 Z"/>
       </g>
      </g>
      <g class="com.sun.star.drawing.ClosedBezierShape">
       <g id="id49">
        <rect class="BoundingBox" stroke="none" fill="none" x="752" y="1527" width="71" height="36"/>
        <path fill="rgb(166,169,162)" stroke="none" d="M 753,1530 L 763,1528 C 784,1531 804,1538 822,1546 L 758,1562 C 756,1547 754,1536 753,1530 Z"/>
       </g>
      </g>
      <g class="com.sun.star.drawing.ClosedBezierShape">
       <g id="id50">
        <rect class="BoundingBox" stroke="none" fill="none" x="752" y="1526" width="50" height="24"/>
        <path fill="rgb(176,179,172)" stroke="none" d="M 752,1526 C 769,1528 785,1532 801,1537 L 756,1548 C 754,1535 752,1526 752,1526 Z"/>
       </g>
      </g>
      <g class="com.sun.star.drawing.ClosedBezierShape">
       <g id="id51">
        <rect class="BoundingBox" stroke="none" fill="none" x="752" y="1526" width="25" height="11"/>
        <path fill="rgb(186,189,182)" stroke="none" d="M 752,1526 C 760,1527 768,1528 776,1530 L 754,1535 C 753,1529 752,1526 752,1526 Z"/>
       </g>
      </g>
      <g class="com.sun.star.drawing.ClosedBezierShape">
       <g id="id52">
        <rect class="BoundingBox" stroke="none" fill="none" x="694" y="1498" width="223" height="261"/>
        <path fill="none" stroke="rgb(63,63,63)" stroke-width="55" stroke-linejoin="round" d="M 722,1730 C 734,1719 743,1704 749,1688 773,1622 752,1527 752,1526 820,1532 887,1583 888,1598 L 722,1730 Z"/>
       </g>
      </g>
      <g class="com.sun.star.drawing.PolyLineShape">
       <g id="id53">
        <rect class="BoundingBox" stroke="none" fill="none" x="738" y="1553" width="147" height="132"/>
        <path fill="none" stroke="rgb(186,189,182)" stroke-width="56" stroke-linejoin="miter" d="M 756,1661 L 867,1576 867,1576"/>
       </g>
      </g>
      <g class="com.sun.star.drawing.ClosedBezierShape">
       <g id="id54">
        <rect class="BoundingBox" stroke="none" fill="none" x="694" y="1498" width="223" height="261"/>
        <path fill="none" stroke="rgb(63,63,63)" stroke-width="55" stroke-linejoin="round" d="M 722,1730 C 734,1719 743,1704 749,1688 773,1622 752,1527 752,1526 820,1532 887,1583 888,1598 L 722,1730 Z"/>
       </g>
      </g>
      <g class="com.sun.star.drawing.ClosedBezierShape">
       <g id="id55">
        <rect class="BoundingBox" stroke="none" fill="none" x="462" y="1396" width="133" height="57"/>
        <path fill="rgb(221,20,20)" stroke="none" d="M 593,1429 C 593,1435 592,1440 590,1444 588,1447 584,1450 581,1451 577,1452 573,1451 568,1449 L 463,1397 593,1427 593,1429 Z"/>
       </g>
      </g>
      <g class="com.sun.star.drawing.ClosedBezierShape">
       <g id="id56">
        <rect class="BoundingBox" stroke="none" fill="none" x="349" y="1340" width="246" height="113"/>
        <path fill="rgb(222,21,21)" stroke="none" d="M 593,1429 C 593,1435 592,1440 590,1444 588,1447 584,1450 581,1451 577,1452 573,1451 568,1449 L 389,1360 349,1340 593,1397 593,1429 Z"/>
       </g>
      </g>
      <g class="com.sun.star.drawing.ClosedBezierShape">
       <g id="id57">
        <rect class="BoundingBox" stroke="none" fill="none" x="235" y="1283" width="360" height="156"/>
        <path fill="rgb(223,23,23)" stroke="none" d="M 543,1373 L 543,1355 593,1367 593,1429 C 593,1432 593,1435 592,1437 L 502,1416 389,1360 236,1284 477,1340 543,1373 Z"/>
       </g>
      </g>
      <g class="com.sun.star.drawing.ClosedBezierShape">
       <g id="id58">
        <rect class="BoundingBox" stroke="none" fill="none" x="187" y="1241" width="408" height="168"/>
        <path fill="rgb(225,24,24)" stroke="none" d="M 389,1296 L 543,1373 543,1325 593,1337 593,1407 388,1359 211,1271 C 206,1269 202,1265 198,1261 194,1256 191,1251 189,1245 189,1244 188,1243 188,1242 L 361,1282 389,1296 Z"/>
       </g>
      </g>
      <g class="com.sun.star.drawing.ClosedBezierShape">
       <g id="id59">
        <rect class="BoundingBox" stroke="none" fill="none" x="185" y="1210" width="410" height="169"/>
        <path fill="rgb(226,25,25)" stroke="none" d="M 389,1296 L 516,1359 273,1302 211,1271 C 206,1269 202,1265 198,1261 194,1256 191,1251 189,1245 187,1239 186,1233 186,1227 L 186,1211 246,1225 389,1296 Z M 543,1295 L 593,1307 593,1377 543,1366 543,1295 Z"/>
       </g>
      </g>
      <g class="com.sun.star.drawing.ClosedBezierShape">
       <g id="id60">
        <rect class="BoundingBox" stroke="none" fill="none" x="185" y="1180" width="410" height="169"/>
        <path fill="rgb(227,27,27)" stroke="none" d="M 389,1296 L 401,1302 193,1254 C 192,1251 190,1248 189,1245 187,1239 186,1233 186,1227 L 186,1181 236,1192 236,1220 389,1296 Z M 543,1265 L 593,1276 593,1347 543,1335 543,1265 Z"/>
       </g>
      </g>
      <g class="com.sun.star.drawing.PolyPolygonShape">
       <g id="id61">
        <rect class="BoundingBox" stroke="none" fill="none" x="185" y="1150" width="410" height="169"/>
        <path fill="rgb(228,28,28)" stroke="none" d="M 543,1235 L 593,1246 593,1317 543,1305 543,1235 Z M 236,1220 L 286,1245 186,1222 186,1151 236,1162 236,1220 Z"/>
       </g>
      </g>
      <g class="com.sun.star.drawing.PolyPolygonShape">
       <g id="id62">
        <rect class="BoundingBox" stroke="none" fill="none" x="185" y="1120" width="410" height="169"/>
        <path fill="rgb(229,30,30)" stroke="none" d="M 543,1204 L 593,1216 593,1287 543,1275 543,1204 Z M 236,1203 L 186,1191 186,1121 236,1132 236,1203 Z"/>
       </g>
      </g>
      <g class="com.sun.star.drawing.PolyPolygonShape">
       <g id="id63">
        <rect class="BoundingBox" stroke="none" fill="none" x="185" y="1090" width="410" height="168"/>
        <path fill="rgb(231,31,31)" stroke="none" d="M 543,1174 L 593,1186 593,1257 543,1245 543,1174 Z M 236,1173 L 186,1161 186,1091 236,1102 236,1173 Z"/>
       </g>
      </g>
      <g class="com.sun.star.drawing.PolyPolygonShape">
       <g id="id64">
        <rect class="BoundingBox" stroke="none" fill="none" x="185" y="1060" width="410" height="168"/>
        <path fill="rgb(232,33,33)" stroke="none" d="M 543,1144 L 593,1156 593,1227 543,1215 543,1144 Z M 236,1143 L 186,1131 186,1061 236,1072 236,1143 Z"/>
       </g>
      </g>
      <g class="com.sun.star.drawing.PolyPolygonShape">
       <g id="id65">
        <rect class="BoundingBox" stroke="none" fill="none" x="185" y="1030" width="410" height="167"/>
        <path fill="rgb(233,34,34)" stroke="none" d="M 543,1114 L 593,1126 593,1196 543,1184 543,1114 Z M 236,1113 L 186,1101 186,1030 236,1042 236,1113 Z"/>
       </g>
      </g>
      <g class="com.sun.star.drawing.PolyPolygonShape">
       <g id="id66">
        <rect class="BoundingBox" stroke="none" fill="none" x="185" y="1000" width="410" height="167"/>
        <path fill="rgb(234,35,35)" stroke="none" d="M 543,1084 L 593,1096 593,1166 543,1154 543,1084 Z M 236,1083 L 186,1071 186,1000 236,1012 236,1083 Z"/>
       </g>
      </g>
      <g class="com.sun.star.drawing.PolyPolygonShape">
       <g id="id67">
        <rect class="BoundingBox" stroke="none" fill="none" x="185" y="970" width="410" height="167"/>
        <path fill="rgb(235,37,37)" stroke="none" d="M 543,1053 L 593,1065 593,1136 543,1124 543,1053 Z M 236,1053 L 186,1041 186,970 236,982 236,1053 Z"/>
       </g>
      </g>
      <g class="com.sun.star.drawing.PolyPolygonShape">
       <g id="id68">
        <rect class="BoundingBox" stroke="none" fill="none" x="185" y="940" width="410" height="167"/>
        <path fill="rgb(237,38,38)" stroke="none" d="M 543,1023 L 593,1035 593,1106 543,1094 543,1023 Z M 236,1022 L 186,1010 186,940 236,952 236,1022 Z"/>
       </g>
      </g>
      <g class="com.sun.star.drawing.PolyPolygonShape">
       <g id="id69">
        <rect class="BoundingBox" stroke="none" fill="none" x="185" y="909" width="410" height="168"/>
        <path fill="rgb(238,40,40)" stroke="none" d="M 543,993 L 593,1005 593,1075 543,1064 543,993 Z M 236,992 L 186,980 186,910 236,922 236,992 Z"/>
       </g>
      </g>
      <g class="com.sun.star.drawing.ClosedBezierShape">
       <g id="id70">
        <rect class="BoundingBox" stroke="none" fill="none" x="185" y="751" width="410" height="296"/>
        <path fill="rgb(239,41,41)" stroke="none" d="M 543,983 L 236,830 236,961 186,950 186,774 C 186,768 187,763 189,759 191,756 194,753 198,752 202,751 206,752 211,754 L 568,932 C 573,934 577,938 581,942 584,947 588,953 590,958 592,964 593,970 593,976 L 593,1045 543,1033 543,983 Z"/>
       </g>
      </g>
      <g class="com.sun.star.drawing.ClosedBezierShape">
       <g id="id71">
        <rect class="BoundingBox" stroke="none" fill="none" x="560" y="1163" width="128" height="39"/>
        <path fill="rgb(208,4,4)" stroke="none" d="M 643,1199 C 625,1195 607,1189 589,1180 579,1175 570,1170 561,1164 L 686,1200 C 672,1202 658,1201 643,1199 Z"/>
       </g>
      </g>
      <g class="com.sun.star.drawing.ClosedBezierShape">
       <g id="id72">
        <rect class="BoundingBox" stroke="none" fill="none" x="507" y="1120" width="225" height="82"/>
        <path fill="rgb(209,6,6)" stroke="none" d="M 694,1198 C 678,1202 661,1202 643,1199 625,1195 607,1189 589,1180 570,1171 552,1159 535,1145 525,1137 516,1129 508,1120 L 730,1184 C 719,1191 707,1196 694,1198 Z"/>
       </g>
      </g>
      <g class="com.sun.star.drawing.ClosedBezierShape">
       <g id="id73">
        <rect class="BoundingBox" stroke="none" fill="none" x="474" y="1082" width="283" height="120"/>
        <path fill="rgb(210,7,7)" stroke="none" d="M 737,1180 C 724,1189 710,1195 694,1198 681,1201 667,1201 654,1200 L 595,1183 C 593,1182 591,1181 589,1180 570,1171 552,1159 535,1145 517,1130 500,1113 484,1094 481,1091 478,1087 475,1083 L 585,1115 C 587,1115 588,1116 589,1116 603,1123 617,1128 631,1131 636,1132 641,1132 647,1132 L 756,1164 C 750,1170 744,1175 737,1180 Z"/>
       </g>
      </g>
      <g class="com.sun.star.drawing.ClosedBezierShape">
       <g id="id74">
        <rect class="BoundingBox" stroke="none" fill="none" x="449" y="1047" width="326" height="145"/>
        <path fill="rgb(212,9,9)" stroke="none" d="M 771,1144 C 762,1159 750,1171 737,1180 731,1184 725,1188 719,1191 L 522,1134 C 509,1122 496,1109 484,1094 472,1080 460,1064 450,1048 L 525,1069 C 532,1076 539,1083 547,1089 560,1100 575,1109 589,1116 603,1123 617,1128 631,1131 644,1133 658,1133 670,1131 680,1129 690,1125 699,1119 L 773,1140 C 772,1141 772,1143 771,1144 Z"/>
       </g>
      </g>
      <g class="com.sun.star.drawing.ClosedBezierShape">
       <g id="id75">
        <rect class="BoundingBox" stroke="none" fill="none" x="430" y="1014" width="356" height="159"/>
        <path fill="rgb(213,10,10)" stroke="none" d="M 771,1144 C 764,1154 757,1164 748,1171 L 485,1095 C 484,1095 484,1095 484,1094 468,1075 453,1055 440,1033 437,1026 433,1020 430,1014 L 494,1032 C 498,1039 503,1044 508,1050 520,1065 533,1078 547,1089 560,1100 575,1109 589,1116 603,1123 617,1128 631,1131 644,1133 658,1133 670,1131 682,1128 693,1123 703,1116 710,1111 717,1105 723,1098 L 785,1116 C 781,1126 776,1135 771,1144 Z"/>
       </g>
      </g>
      <g class="com.sun.star.drawing.ClosedBezierShape">
       <g id="id76">
        <rect class="BoundingBox" stroke="none" fill="none" x="414" y="980" width="380" height="170"/>
        <path fill="rgb(214,12,12)" stroke="none" d="M 792,1093 C 787,1112 780,1129 771,1144 770,1145 769,1147 768,1148 L 687,1125 C 693,1123 698,1120 703,1116 713,1110 721,1101 728,1089 731,1085 734,1079 737,1074 L 793,1090 C 793,1091 792,1092 792,1093 Z M 440,1033 C 431,1016 422,999 414,981 L 471,997 C 472,999 473,1001 475,1003 484,1020 496,1036 508,1050 518,1062 529,1073 540,1083 L 457,1059 C 452,1051 446,1042 440,1033 Z"/>
       </g>
      </g>
      <g class="com.sun.star.drawing.ClosedBezierShape">
       <g id="id77">
        <rect class="BoundingBox" stroke="none" fill="none" x="401" y="949" width="398" height="177"/>
        <path fill="rgb(215,13,13)" stroke="none" d="M 792,1093 C 789,1104 786,1114 781,1124 L 716,1105 C 721,1101 725,1095 728,1089 735,1078 741,1066 744,1051 745,1050 745,1049 745,1048 L 798,1063 C 796,1073 795,1083 792,1093 Z M 407,963 C 405,958 403,954 402,949 L 455,965 C 461,978 467,991 475,1003 483,1017 492,1031 502,1044 L 436,1024 C 425,1005 415,984 407,963 Z"/>
       </g>
      </g>
      <g class="com.sun.star.drawing.ClosedBezierShape">
       <g id="id78">
        <rect class="BoundingBox" stroke="none" fill="none" x="392" y="918" width="409" height="183"/>
        <path fill="rgb(217,15,15)" stroke="none" d="M 792,1093 C 792,1095 791,1097 791,1099 L 733,1082 C 737,1073 741,1063 744,1051 747,1042 748,1032 749,1021 L 799,1035 C 799,1056 797,1075 792,1093 Z M 407,963 C 401,948 396,933 392,919 L 443,933 C 445,939 447,945 449,951 456,969 465,986 475,1003 476,1005 477,1007 478,1009 L 419,992 C 415,982 411,973 407,963 Z"/>
       </g>
      </g>
      <g class="com.sun.star.drawing.ClosedBezierShape">
       <g id="id79">
        <rect class="BoundingBox" stroke="none" fill="none" x="384" y="887" width="417" height="186"/>
        <path fill="rgb(218,16,16)" stroke="none" d="M 385,891 C 385,890 385,889 385,888 L 435,902 C 438,918 443,935 449,951 453,959 456,967 460,975 L 406,960 C 397,937 390,914 385,891 Z M 799,1030 C 799,1045 798,1059 796,1072 L 743,1057 C 743,1055 744,1053 744,1051 748,1037 750,1022 750,1005 750,1001 749,997 749,993 L 799,1007 C 799,1015 799,1022 799,1030 Z"/>
       </g>
      </g>
      <g class="com.sun.star.drawing.ClosedBezierShape">
       <g id="id80">
        <rect class="BoundingBox" stroke="none" fill="none" x="380" y="858" width="421" height="188"/>
        <path fill="rgb(219,18,18)" stroke="none" d="M 385,891 C 385,888 384,885 384,882 L 381,859 430,873 C 431,881 432,889 433,897 437,913 441,928 447,944 L 395,929 C 391,916 388,903 385,891 Z M 799,1030 C 799,1035 799,1040 799,1045 L 748,1030 C 749,1022 750,1014 750,1005 750,992 748,978 746,964 L 795,978 C 798,996 799,1013 799,1030 Z"/>
       </g>
      </g>
      <g class="com.sun.star.drawing.ClosedBezierShape">
       <g id="id81">
        <rect class="BoundingBox" stroke="none" fill="none" x="378" y="829" width="423" height="190"/>
        <path fill="rgb(220,19,19)" stroke="none" d="M 385,891 C 385,887 384,883 383,880 L 380,851 C 379,844 379,837 378,830 L 428,844 C 428,845 428,845 428,845 428,862 430,879 433,897 434,902 436,907 437,912 L 387,898 C 386,895 386,893 385,891 Z M 792,960 C 794,967 795,973 796,980 L 797,992 C 798,1001 799,1009 799,1017 L 750,1003 C 749,987 748,970 744,954 743,947 741,940 739,934 L 790,948 C 791,952 791,956 792,960 Z"/>
       </g>
      </g>
      <g class="com.sun.star.drawing.ClosedBezierShape">
       <g id="id82">
        <rect class="BoundingBox" stroke="none" fill="none" x="378" y="802" width="54" height="82"/>
        <path fill="rgb(222,20,20)" stroke="none" d="M 378,821 C 378,814 378,808 379,802 L 430,817 C 429,826 428,836 428,845 428,858 429,870 431,883 L 382,869 380,856 C 379,844 378,832 378,821 Z"/>
       </g>
      </g>
      <g class="com.sun.star.drawing.ClosedBezierShape">
       <g id="id83">
        <rect class="BoundingBox" stroke="none" fill="none" x="378" y="774" width="415" height="186"/>
        <path fill="rgb(223,22,22)" stroke="none" d="M 378,821 C 378,804 379,789 382,774 L 436,790 C 435,793 434,796 433,799 430,813 428,829 428,845 428,848 428,851 428,854 L 379,840 C 378,833 378,827 378,821 Z M 771,888 C 780,911 787,935 792,958 L 742,944 C 739,929 734,915 728,900 725,890 720,880 716,871 L 771,887 C 771,887 771,887 771,888 Z"/>
       </g>
      </g>
      <g class="com.sun.star.drawing.ClosedBezierShape">
       <g id="id84">
        <rect class="BoundingBox" stroke="none" fill="none" x="378" y="748" width="408" height="182"/>
        <path fill="rgb(224,23,23)" stroke="none" d="M 385,758 C 386,755 387,751 388,748 L 447,765 C 441,775 437,787 433,799 431,807 430,816 429,826 L 378,811 C 379,792 381,774 385,758 Z M 771,888 C 776,901 781,915 785,928 L 733,914 C 732,909 730,904 728,900 721,882 713,864 703,848 701,844 699,840 696,837 L 756,854 C 762,865 766,876 771,888 Z"/>
       </g>
      </g>
      <g class="com.sun.star.drawing.ClosedBezierShape">
       <g id="id85">
        <rect class="BoundingBox" stroke="none" fill="none" x="380" y="723" width="396" height="176"/>
        <path fill="rgb(225,25,25)" stroke="none" d="M 385,758 C 389,745 393,734 398,723 L 465,742 C 459,748 454,754 449,761 442,772 437,785 434,799 L 381,784 C 382,775 383,766 385,758 Z M 771,888 C 772,891 773,894 775,898 L 721,882 C 716,870 710,859 703,848 693,831 683,816 671,801 L 739,821 C 751,842 762,865 771,888 Z"/>
       </g>
      </g>
      <g class="com.sun.star.drawing.ClosedBezierShape">
       <g id="id86">
        <rect class="BoundingBox" stroke="none" fill="none" x="385" y="698" width="378" height="169"/>
        <path fill="rgb(227,26,26)" stroke="none" d="M 407,707 C 409,704 410,701 412,699 L 496,723 C 489,726 481,729 475,734 465,741 456,750 449,761 447,765 445,769 442,774 L 386,757 C 390,738 398,721 407,707 Z M 737,818 C 746,833 754,849 761,865 L 704,848 C 703,848 703,848 703,848 693,831 682,815 670,800 658,786 645,773 631,762 L 717,787 C 724,797 731,807 737,818 Z"/>
       </g>
      </g>
      <g class="com.sun.star.drawing.ClosedBezierShape">
       <g id="id87">
        <rect class="BoundingBox" stroke="none" fill="none" x="393" y="676" width="354" height="158"/>
        <path fill="rgb(228,28,28)" stroke="none" d="M 407,707 C 414,695 423,685 433,677 L 689,751 C 691,753 692,754 694,756 710,775 724,796 737,818 740,823 743,828 745,833 L 681,814 C 677,809 673,805 670,800 658,786 644,773 631,762 617,751 603,741 589,734 575,727 560,722 547,720 533,718 520,718 508,720 496,722 484,727 475,734 468,739 463,744 457,750 L 394,732 C 398,723 402,714 407,707 Z"/>
       </g>
      </g>
      <g class="com.sun.star.drawing.ClosedBezierShape">
       <g id="id88">
        <rect class="BoundingBox" stroke="none" fill="none" x="406" y="657" width="321" height="143"/>
        <path fill="rgb(229,29,29)" stroke="none" d="M 407,707 C 416,692 427,680 440,671 448,665 456,661 464,658 L 649,711 C 664,724 679,739 694,756 705,770 715,784 725,799 L 647,776 C 642,771 636,766 631,762 617,751 603,741 589,734 575,727 560,722 547,720 533,718 520,718 508,720 499,722 491,725 483,729 L 407,707 C 407,707 407,707 407,707 Z"/>
       </g>
      </g>
      <g class="com.sun.star.drawing.ClosedBezierShape">
       <g id="id89">
        <rect class="BoundingBox" stroke="none" fill="none" x="424" y="649" width="276" height="115"/>
        <path fill="rgb(230,31,31)" stroke="none" d="M 440,671 C 453,662 468,655 484,652 500,649 517,649 535,652 552,655 570,661 589,670 607,680 625,691 643,706 661,720 678,737 694,756 695,758 697,760 699,762 L 425,684 C 430,679 435,675 440,671 Z"/>
       </g>
      </g>
      <g class="com.sun.star.drawing.ClosedBezierShape">
       <g id="id90">
        <rect class="BoundingBox" stroke="none" fill="none" x="451" y="649" width="214" height="77"/>
        <path fill="rgb(232,32,32)" stroke="none" d="M 484,652 C 500,649 517,649 535,652 552,655 570,661 589,670 607,680 625,691 643,706 650,712 657,718 664,725 L 452,664 C 462,658 473,654 484,652 Z"/>
       </g>
      </g>
      <g class="com.sun.star.drawing.ClosedBezierShape">
       <g id="id91">
        <rect class="BoundingBox" stroke="none" fill="none" x="502" y="649" width="105" height="32"/>
        <path fill="rgb(233,34,34)" stroke="none" d="M 535,652 C 552,655 570,661 589,670 594,673 600,676 606,680 L 503,650 C 513,649 524,650 535,652 Z"/>
       </g>
      </g>
     </g>
    </g>
   </g>
  </g>
 </g>
</svg>