<?xml version="1.0" encoding="UTF-8" standalone="no"?>
<!-- Created with Inkscape (http://www.inkscape.org/) -->

<svg
   xmlns:dc="http://purl.org/dc/elements/1.1/"
   xmlns:cc="http://creativecommons.org/ns#"
   xmlns:rdf="http://www.w3.org/1999/02/22-rdf-syntax-ns#"
   xmlns:svg="http://www.w3.org/2000/svg"
   xmlns="http://www.w3.org/2000/svg"
   xmlns:sodipodi="http://sodipodi.sourceforge.net/DTD/sodipodi-0.dtd"
   xmlns:inkscape="http://www.inkscape.org/namespaces/inkscape"
   width="128"
   height="128"
   viewBox="0 0 33.866666 33.866666"
   version="1.1"
   id="svg8"
   inkscape:version="0.92pre1 r15002"
   sodipodi:docname="SMForming.svg">
  <defs
     id="defs2" />
  <sodipodi:namedview
     id="base"
     pagecolor="#ffffff"
     bordercolor="#666666"
     borderopacity="1.0"
     inkscape:pageopacity="0.0"
     inkscape:pageshadow="2"
     inkscape:zoom="5.9296875"
     inkscape:cx="64"
     inkscape:cy="64"
     inkscape:document-units="mm"
     inkscape:current-layer="layer1"
     showgrid="false"
     units="px"
     inkscape:window-width="1280"
     inkscape:window-height="972"
     inkscape:window-x="-8"
     inkscape:window-y="-8"
     inkscape:window-maximized="1" />
  <metadata
     id="metadata5">
    <rdf:RDF>
      <cc:Work
         rdf:about="">
        <dc:format>image/svg+xml</dc:format>
        <dc:type
           rdf:resource="http://purl.org/dc/dcmitype/StillImage" />
        <dc:title></dc:title>
      </cc:Work>
    </rdf:RDF>
  </metadata>
  <g
     inkscape:label="Layer 1"
     inkscape:groupmode="layer"
     id="layer1"
     transform="translate(0,-263.13334)">
    <g
       id="g4329"
       transform="matrix(1.5078494,0,0,1.8941625,0.91863581,264.24305)">
      <g
         transform="matrix(1,0,0,-1,0.284758,15.949157)"
         id="Shape2DView">
        <path
           style="fill:none;fill-rule:evenodd;stroke:#191919;stroke-width:0.34999999;stroke-miterlimit:4;stroke-dasharray:none"
           d="M 0,6 H 2"
           id="Shape2DView_nwe0000"
           inkscape:connector-curvature="0" />
        <path
           style="fill:none;fill-rule:evenodd;stroke:#191919;stroke-width:0.34999999;stroke-miterlimit:4;stroke-dasharray:none"
           d="M 2,6 A 2,2 0 0 1 4,8"
           id="Shape2DView_nwe0001"
           inkscape:connector-curvature="0" />
        <path
           style="fill:none;fill-rule:evenodd;stroke:#191919;stroke-width:0.34999999;stroke-miterlimit:4;stroke-dasharray:none"
           d="M 0,0 V 6"
           id="Shape2DView_nwe0002"
           inkscape:connector-curvature="0" />
        <path
           style="fill:none;fill-rule:evenodd;stroke:#191919;stroke-width:0.34999999;stroke-miterlimit:4;stroke-dasharray:none"
           d="m 18,6 h 2"
           id="Shape2DView_nwe0003"
           inkscape:connector-curvature="0" />
        <path
           style="fill:none;fill-rule:evenodd;stroke:#191919;stroke-width:0.34999999;stroke-miterlimit:4;stroke-dasharray:none"
           d="M 18,6 A 2,2 0 0 0 16,8"
           id="Shape2DView_nwe0004"
           inkscape:connector-curvature="0" />
        <path
           style="fill:none;fill-rule:evenodd;stroke:#191919;stroke-width:0.34999999;stroke-miterlimit:4;stroke-dasharray:none"
           d="M 20,0 V 6"
           id="Shape2DView_nwe0005"
           inkscape:connector-curvature="0" />
        <path
           style="fill:none;fill-rule:evenodd;stroke:#191919;stroke-width:0.34999999;stroke-miterlimit:4;stroke-dasharray:none"
           d="M 16,8 V 9"
           id="Shape2DView_nwe0006"
           inkscape:connector-curvature="0" />
        <path
           style="fill:none;fill-rule:evenodd;stroke:#191919;stroke-width:0.34999999;stroke-miterlimit:4;stroke-dasharray:none"
           d="M 0,0 H 20"
           id="Shape2DView_nwe0007"
           inkscape:connector-curvature="0" />
        <path
           style="fill:none;fill-rule:evenodd;stroke:#191919;stroke-width:0.34999999;stroke-miterlimit:4;stroke-dasharray:none"
           d="m 16,9 a 1,1 0 0 1 -1,1"
           id="Shape2DView_nwe0008"
           inkscape:connector-curvature="0" />
        <path
           style="fill:none;fill-rule:evenodd;stroke:#191919;stroke-width:0.34999999;stroke-miterlimit:4;stroke-dasharray:none"
           d="M 5,10 H 15"
           id="Shape2DView_nwe0009"
           inkscape:connector-curvature="0" />
        <path
           style="fill:none;fill-rule:evenodd;stroke:#191919;stroke-width:0.34999999;stroke-miterlimit:4;stroke-dasharray:none"
           d="m 4,9 a 1,1 0 0 0 1,1"
           id="Shape2DView_nwe0010"
           inkscape:connector-curvature="0" />
        <path
           style="fill:none;fill-rule:evenodd;stroke:#191919;stroke-width:0.34999999;stroke-miterlimit:4;stroke-dasharray:none"
           d="M 4,8 V 9"
           id="Shape2DView_nwe0011"
           inkscape:connector-curvature="0" />
        <title
           id="title4243">Shape2DView</title>
      </g>
      <g
         transform="matrix(1,0,0,-1,0.284758,15.949157)"
         id="Shape2DView001">
        <path
           style="fill:none;fill-rule:evenodd;stroke:#191919;stroke-width:0.34999999;stroke-miterlimit:4;stroke-dasharray:none"
           d="m 18.459604,11.460956 h 1.528707"
           id="Shape2DView001_nwe0000"
           inkscape:connector-curvature="0" />
        <path
           style="fill:none;fill-rule:evenodd;stroke:#191919;stroke-width:0.34999999;stroke-miterlimit:4;stroke-dasharray:none"
           d="M 17.459604,12.460956 A 1,1 0 0 1 18.4596,11.461"
           id="Shape2DView001_nwe0001"
           inkscape:connector-curvature="0" />
        <path
           style="fill:none;fill-rule:evenodd;stroke:#191919;stroke-width:0.34999999;stroke-miterlimit:4;stroke-dasharray:none"
           d="m 18.459604,11.460956 v -1"
           id="Shape2DView001_nwe0002"
           inkscape:connector-curvature="0" />
        <path
           style="fill:none;fill-rule:evenodd;stroke:#191919;stroke-width:0.34999999;stroke-miterlimit:4;stroke-dasharray:none"
           d="m 18.459604,10.460956 h 1.528707"
           id="Shape2DView001_nwe0003"
           inkscape:connector-curvature="0" />
        <path
           style="fill:none;fill-rule:evenodd;stroke:#191919;stroke-width:0.34999999;stroke-miterlimit:4;stroke-dasharray:none"
           d="m 19.988311,10.460956 v 1"
           id="Shape2DView001_nwe0004"
           inkscape:connector-curvature="0" />
        <path
           style="fill:none;fill-rule:evenodd;stroke:#191919;stroke-width:0.34999999;stroke-miterlimit:4;stroke-dasharray:none"
           d="M 17.459604,13.748318 V 12.460956"
           id="Shape2DView001_nwe0005"
           inkscape:connector-curvature="0" />
        <path
           style="fill:none;fill-rule:evenodd;stroke:#191919;stroke-width:0.34999999;stroke-miterlimit:4;stroke-dasharray:none"
           d="m 17.459604,12.460956 h -1"
           id="Shape2DView001_nwe0006"
           inkscape:connector-curvature="0" />
        <path
           style="fill:none;fill-rule:evenodd;stroke:#191919;stroke-width:0.34999999;stroke-miterlimit:4;stroke-dasharray:none"
           d="M 16.459604,12.460956 A 2,2 0 0 1 18.4596,10.461"
           id="Shape2DView001_nwe0007"
           inkscape:connector-curvature="0" />
        <path
           style="fill:none;fill-rule:evenodd;stroke:#191919;stroke-width:0.34999999;stroke-miterlimit:4;stroke-dasharray:none"
           d="M 15.459604,15.748318 A 2,2 0 0 0 17.4596,13.7483"
           id="Shape2DView001_nwe0008"
           inkscape:connector-curvature="0" />
        <path
           style="fill:none;fill-rule:evenodd;stroke:#191919;stroke-width:0.34999999;stroke-miterlimit:4;stroke-dasharray:none"
           d="m 17.459604,13.748318 h -1"
           id="Shape2DView001_nwe0009"
           inkscape:connector-curvature="0" />
        <path
           style="fill:none;fill-rule:evenodd;stroke:#191919;stroke-width:0.34999999;stroke-miterlimit:4;stroke-dasharray:none"
           d="M 16.459604,13.748318 V 12.460956"
           id="Shape2DView001_nwe0010"
           inkscape:connector-curvature="0" />
        <path
           style="fill:none;fill-rule:evenodd;stroke:#191919;stroke-width:0.34999999;stroke-miterlimit:4;stroke-dasharray:none"
           d="M 4.444788,15.748318 H 15.459604"
           id="Shape2DView001_nwe0011"
           inkscape:connector-curvature="0" />
        <path
           style="fill:none;fill-rule:evenodd;stroke:#191919;stroke-width:0.34999999;stroke-miterlimit:4;stroke-dasharray:none"
           d="m 15.459604,15.748318 v -1"
           id="Shape2DView001_nwe0012"
           inkscape:connector-curvature="0" />
        <path
           style="fill:none;fill-rule:evenodd;stroke:#191919;stroke-width:0.34999999;stroke-miterlimit:4;stroke-dasharray:none"
           d="M 15.459604,14.748318 A 1,1 0 0 0 16.4596,13.7483"
           id="Shape2DView001_nwe0013"
           inkscape:connector-curvature="0" />
        <path
           style="fill:none;fill-rule:evenodd;stroke:#191919;stroke-width:0.34999999;stroke-miterlimit:4;stroke-dasharray:none"
           d="M 2.444788,13.748318 A 2,2 0 0 0 4.44479,15.7483"
           id="Shape2DView001_nwe0014"
           inkscape:connector-curvature="0" />
        <path
           style="fill:none;fill-rule:evenodd;stroke:#191919;stroke-width:0.34999999;stroke-miterlimit:4;stroke-dasharray:none"
           d="m 4.444788,15.748318 v -1"
           id="Shape2DView001_nwe0015"
           inkscape:connector-curvature="0" />
        <path
           style="fill:none;fill-rule:evenodd;stroke:#191919;stroke-width:0.34999999;stroke-miterlimit:4;stroke-dasharray:none"
           d="M 4.444788,14.748318 H 15.459604"
           id="Shape2DView001_nwe0016"
           inkscape:connector-curvature="0" />
        <path
           style="fill:none;fill-rule:evenodd;stroke:#191919;stroke-width:0.34999999;stroke-miterlimit:4;stroke-dasharray:none"
           d="m 2.444788,12.571189 v 1.177129"
           id="Shape2DView001_nwe0017"
           inkscape:connector-curvature="0" />
        <path
           style="fill:none;fill-rule:evenodd;stroke:#191919;stroke-width:0.34999999;stroke-miterlimit:4;stroke-dasharray:none"
           d="m 2.444788,13.748318 h 1"
           id="Shape2DView001_nwe0018"
           inkscape:connector-curvature="0" />
        <path
           style="fill:none;fill-rule:evenodd;stroke:#191919;stroke-width:0.34999999;stroke-miterlimit:4;stroke-dasharray:none"
           d="M 3.444788,13.748318 A 1,1 0 0 0 4.44479,14.7483"
           id="Shape2DView001_nwe0019"
           inkscape:connector-curvature="0" />
        <path
           style="fill:none;fill-rule:evenodd;stroke:#191919;stroke-width:0.34999999;stroke-miterlimit:4;stroke-dasharray:none"
           d="M 1.444788,11.571189 A 1,1 0 0 1 2.44479,12.5712"
           id="Shape2DView001_nwe0020"
           inkscape:connector-curvature="0" />
        <path
           style="fill:none;fill-rule:evenodd;stroke:#191919;stroke-width:0.34999999;stroke-miterlimit:4;stroke-dasharray:none"
           d="m 2.444788,12.571189 h 1"
           id="Shape2DView001_nwe0021"
           inkscape:connector-curvature="0" />
        <path
           style="fill:none;fill-rule:evenodd;stroke:#191919;stroke-width:0.34999999;stroke-miterlimit:4;stroke-dasharray:none"
           d="m 3.444788,12.571189 v 1.177129"
           id="Shape2DView001_nwe0022"
           inkscape:connector-curvature="0" />
        <path
           style="fill:none;fill-rule:evenodd;stroke:#191919;stroke-width:0.34999999;stroke-miterlimit:4;stroke-dasharray:none"
           d="M -0.083919,11.571189 H 1.444788"
           id="Shape2DView001_nwe0023"
           inkscape:connector-curvature="0" />
        <path
           style="fill:none;fill-rule:evenodd;stroke:#191919;stroke-width:0.34999999;stroke-miterlimit:4;stroke-dasharray:none"
           d="m 1.444788,11.571189 v -1"
           id="Shape2DView001_nwe0024"
           inkscape:connector-curvature="0" />
        <path
           style="fill:none;fill-rule:evenodd;stroke:#191919;stroke-width:0.34999999;stroke-miterlimit:4;stroke-dasharray:none"
           d="M 1.444788,10.571189 A 2,2 0 0 1 3.44479,12.5712"
           id="Shape2DView001_nwe0025"
           inkscape:connector-curvature="0" />
        <path
           style="fill:none;fill-rule:evenodd;stroke:#191919;stroke-width:0.34999999;stroke-miterlimit:4;stroke-dasharray:none"
           d="m -0.083919,11.571189 v -1"
           id="Shape2DView001_nwe0026"
           inkscape:connector-curvature="0" />
        <path
           style="fill:none;fill-rule:evenodd;stroke:#191919;stroke-width:0.34999999;stroke-miterlimit:4;stroke-dasharray:none"
           d="M -0.083919,10.571189 H 1.444788"
           id="Shape2DView001_nwe0027"
           inkscape:connector-curvature="0" />
        <title
           id="title4274">Shape2DView001</title>
      </g>
    </g>
    <path
       style="fill:#006680;fill-opacity:0.94117647;stroke:#000000;stroke-width:0.5876742;stroke-miterlimit:4;stroke-dasharray:none;stroke-opacity:1"
       d="m 5.6495389,39.091436 v -2.27668 h 3.2885375 3.2885376 v 2.27668 2.27668 H 8.9380764 5.6495389 Z"
       id="path4331"
       inkscape:connector-curvature="0"
       transform="matrix(0.26458333,0,0,0.26458333,0,263.13334)" />
    <path
       style="fill:#006680;fill-opacity:0.94117647;stroke:#000000;stroke-width:0.5876742;stroke-miterlimit:4;stroke-dasharray:none;stroke-opacity:1"
       d="m 14.418972,38.944347 c 0,-2.102411 0.02592,-2.298234 0.304174,-2.298234 0.640491,0 2.075358,-0.90247 2.968256,-1.866907 1.029273,-1.111738 1.812031,-2.607421 2.134072,-4.077757 l 0.212388,-0.969697 h 1.743915 1.743915 l -0.0029,0.463768 c -0.01013,1.604517 -1.094766,4.677146 -2.280791,6.461184 -1.481839,2.229004 -4.142871,4.180191 -6.106267,4.477386 l -0.716733,0.108491 z"
       id="path4333"
       inkscape:connector-curvature="0"
       transform="matrix(0.26458333,0,0,0.26458333,0,263.13334)" />
    <path
       style="fill:#006680;fill-opacity:0.94117647;stroke:#000000;stroke-width:0.5876742;stroke-miterlimit:4;stroke-dasharray:none;stroke-opacity:1"
       d="m 20.152833,24.166535 v -2.86693 h 1.770751 1.770751 v 2.86693 2.86693 h -1.770751 -1.770751 z"
       id="path4335"
       inkscape:connector-curvature="0"
       transform="matrix(0.26458333,0,0,0.26458333,0,263.13334)" />
    <path
       style="fill:#006680;fill-opacity:0.94117647;stroke:#000000;stroke-width:0.5876742;stroke-miterlimit:4;stroke-dasharray:none;stroke-opacity:1"
       d="m 20.240529,17.800264 c 0.500062,-3.696645 2.45377,-7.21399 5.02689,-9.0501304 1.226234,-0.8750224 1.996685,-1.2377667 3.280068,-1.5443245 l 0.890042,-0.2126017 -0.04683,2.2798059 -0.04683,2.2798057 -0.757985,0.255992 c -2.344223,0.791708 -4.078066,3.079875 -4.79556,6.328738 l -0.10242,0.463769 h -1.777872 -1.777871 z"
       id="path4337"
       inkscape:connector-curvature="0"
       transform="matrix(0.26458333,0,0,0.26458333,0,263.13334)" />
    <path
       style="fill:#006680;fill-opacity:0.94117647;stroke:#000000;stroke-width:0.5876742;stroke-miterlimit:4;stroke-dasharray:none;stroke-opacity:1"
       d="M 31.45191,9.2416337 V 6.9649539 H 61.807642 92.163373 V 9.2416337 11.518314 H 61.807642 31.45191 Z"
       id="path4339"
       inkscape:connector-curvature="0"
       transform="matrix(0.26458333,0,0,0.26458333,0,263.13334)" />
    <path
       style="fill:#006680;fill-opacity:0.94117647;stroke:#000000;stroke-width:0.5876742;stroke-miterlimit:4;stroke-dasharray:none;stroke-opacity:1"
       d="m 99.824954,18.137549 c -0.47317,-2.142545 -1.506008,-4.063915 -2.762897,-5.139765 -0.744497,-0.637262 -2.004206,-1.310827 -2.451523,-1.310827 -0.214843,0 -0.254803,-0.360421 -0.254803,-2.2982342 V 7.0904889 l 0.707998,0.1132134 c 1.77846,0.2843873 4.255027,1.9778566 5.636161,3.8539877 1.33806,1.817638 2.3539,4.365565 2.6882,6.742574 l 0.11266,0.801054 h -1.78669 -1.786685 z"
       id="path4341"
       inkscape:connector-curvature="0"
       transform="matrix(0.26458333,0,0,0.26458333,0,263.13334)" />
    <path
       style="fill:#006680;fill-opacity:0.94117647;stroke:#000000;stroke-width:0.5876742;stroke-miterlimit:4;stroke-dasharray:none;stroke-opacity:1"
       d="m 99.920949,24.588142 v -3.288537 h 1.770751 1.77075 v 3.288537 3.288538 h -1.77075 -1.770751 z"
       id="path4343"
       inkscape:connector-curvature="0"
       transform="matrix(0.26458333,0,0,0.26458333,0,263.13334)" />
    <path
       style="fill:#006680;fill-opacity:0.94117647;stroke:#000000;stroke-width:0.5876742;stroke-miterlimit:4;stroke-dasharray:none;stroke-opacity:1"
       d="m 107.92257,41.806049 c -2.7575,-0.863675 -5.13323,-3.115604 -6.57191,-6.229442 -0.59102,-1.279188 -1.2577,-3.680441 -1.25989,-4.537872 l -0.001,-0.463768 h 1.7588 1.75879 l 0.188,0.905564 c 0.27128,1.306787 1.18266,3.091323 2.09483,4.101844 0.73245,0.811422 2.50205,1.906953 3.08027,1.906953 0.17778,0 0.22603,0.485977 0.22603,2.27668 0,2.55096 0.0585,2.457304 -1.27374,2.040041 z"
       id="path4345"
       inkscape:connector-curvature="0"
       transform="matrix(0.26458333,0,0,0.26458333,0,263.13334)" />
    <path
       style="fill:#006680;fill-opacity:0.94117647;stroke:#000000;stroke-width:0.5876742;stroke-miterlimit:4;stroke-dasharray:none;stroke-opacity:1"
       d="m 111.38867,39.934651 v -2.27668 h 3.28854 3.28853 v 2.27668 2.27668 h -3.28853 -3.28854 z"
       id="path4347"
       inkscape:connector-curvature="0"
       transform="matrix(0.26458333,0,0,0.26458333,0,263.13334)" />
    <path
       style="fill:#006680;fill-opacity:0.94117647;stroke:#000000;stroke-width:0.5876742;stroke-miterlimit:4;stroke-dasharray:none;stroke-opacity:1"
       d="M 6.1554677,96.935968 V 76.783136 l 5.4387353,-0.0013 c 2.991304,-6.75e-4 5.915822,-0.0787 6.498928,-0.173322 2.226956,-0.36131 4.256751,-1.435583 6.042993,-3.198188 2.004864,-1.978337 3.422202,-4.507595 4.233212,-7.554225 0.415169,-1.559616 0.440977,-1.915205 0.547188,-7.539319 0.105214,-5.571318 0.132668,-5.956455 0.489277,-6.864044 0.496704,-1.264131 1.637975,-2.519722 2.70916,-2.980533 l 0.841621,-0.362056 29.404932,0.04403 29.404931,0.04403 0.730952,0.483737 c 1.047622,0.693307 1.49828,1.224645 2.092841,2.467515 l 0.524387,1.096179 0.103774,5.902504 c 0.09834,5.593043 0.126049,5.986499 0.528596,7.504611 0.558891,2.107727 1.132244,3.485733 2.089044,5.020858 1.450961,2.327971 3.543691,4.230825 5.703461,5.185977 1.80448,0.798028 3.01971,0.9236 8.93824,0.9236 h 5.488 V 96.935968 117.0888 H 62.060606 6.1554677 Z"
       id="path4349"
       inkscape:connector-curvature="0"
       transform="matrix(0.26458333,0,0,0.26458333,0,263.13334)" />
  </g>
</svg>
