<?xml version="1.0" encoding="UTF-8" standalone="no"?>
<!-- Created with Inkscape (http://www.inkscape.org/) -->

<svg
   xmlns:dc="http://purl.org/dc/elements/1.1/"
   xmlns:cc="http://creativecommons.org/ns#"
   xmlns:rdf="http://www.w3.org/1999/02/22-rdf-syntax-ns#"
   xmlns:svg="http://www.w3.org/2000/svg"
   xmlns="http://www.w3.org/2000/svg"
   xmlns:sodipodi="http://sodipodi.sourceforge.net/DTD/sodipodi-0.dtd"
   xmlns:inkscape="http://www.inkscape.org/namespaces/inkscape"
   width="128"
   height="128"
   viewBox="0 0 33.866666 33.866668"
   version="1.1"
   id="svg8"
   inkscape:version="0.92pre1 r15002"
   sodipodi:docname="SMForming.svg">
  <defs
     id="defs2" />
  <sodipodi:namedview
     id="base"
     pagecolor="#ffffff"
     bordercolor="#666666"
     borderopacity="1.0"
     inkscape:pageopacity="0.0"
     inkscape:pageshadow="2"
     inkscape:zoom="5.9296875"
     inkscape:cx="64"
     inkscape:cy="64"
     inkscape:document-units="mm"
     inkscape:current-layer="layer1"
     showgrid="false"
     units="px"
     inkscape:window-width="1280"
     inkscape:window-height="972"
     inkscape:window-x="-8"
     inkscape:window-y="-8"
     inkscape:window-maximized="1" />
  <metadata
     id="metadata5">
    <rdf:RDF>
      <cc:Work
         rdf:about="">
        <dc:format>image/svg+xml</dc:format>
        <dc:type
           rdf:resource="http://purl.org/dc/dcmitype/StillImage" />
        <dc:title></dc:title>
      </cc:Work>
    </rdf:RDF>
  </metadata>
  <g
     inkscape:label="Layer 1"
     inkscape:groupmode="layer"
     id="layer1"
     transform="translate(0,-263.13332)">
    <g
       id="g4329"
       transform="matrix(1.4320982,0,0,1.7683195,1.8035004,266.00063)">
      <g
         transform="matrix(1,0,0,-1,0.284758,15.949157)"
         id="Shape2DView">
        <path
           style="fill:none;fill-rule:evenodd;stroke:#191919;stroke-width:0.34999999;stroke-miterlimit:4;stroke-dasharray:none"
           d="M 0,10 H 2"
           id="Shape2DView_nwe0000"
           inkscape:connector-curvature="0" />
        <path
           style="fill:none;fill-rule:evenodd;stroke:#191919;stroke-width:0.34999999;stroke-miterlimit:4;stroke-dasharray:none"
           d="m 2,10 m 0,0 2,2"
           id="Shape2DView_nwe0001"
           inkscape:connector-curvature="0" />
        <path
           style="fill:none;fill-rule:evenodd;stroke:#191919;stroke-width:0.34999999;stroke-miterlimit:4;stroke-dasharray:none"
           d="M 0,0 V 10"
           id="Shape2DView_nwe0002"
           inkscape:connector-curvature="0" />
        <path
           style="fill:none;fill-rule:evenodd;stroke:#191919;stroke-width:0.34999999;stroke-miterlimit:4;stroke-dasharray:none"
           d="m 18,10 h 2"
           id="Shape2DView_nwe0003"
           inkscape:connector-curvature="0" />
        <path
           style="fill:none;fill-rule:evenodd;stroke:#191919;stroke-width:0.34999999;stroke-miterlimit:4;stroke-dasharray:none"
           d="m 18,10 m 0,0 -2,2"
           id="Shape2DView_nwe0004"
           inkscape:connector-curvature="0" />
        <path
           style="fill:none;fill-rule:evenodd;stroke:#191919;stroke-width:0.34999999;stroke-miterlimit:4;stroke-dasharray:none"
           d="M 20,0 V 10"
           id="Shape2DView_nwe0005"
           inkscape:connector-curvature="0" />
        <path
           style="fill:none;fill-rule:evenodd;stroke:#191919;stroke-width:0.34999999;stroke-miterlimit:4;stroke-dasharray:none"
           d="m 16,12 v 1"
           id="Shape2DView_nwe0006"
           inkscape:connector-curvature="0" />
        <path
           style="fill:none;fill-rule:evenodd;stroke:#191919;stroke-width:0.34999999;stroke-miterlimit:4;stroke-dasharray:none"
           d="M 0,0 H 20"
           id="Shape2DView_nwe0007"
           inkscape:connector-curvature="0" />
        <path
           style="fill:none;fill-rule:evenodd;stroke:#191919;stroke-width:0.34999999;stroke-miterlimit:4;stroke-dasharray:none"
           d="m 16,13 m 0,0 -1,1"
           id="Shape2DView_nwe0008"
           inkscape:connector-curvature="0" />
        <path
           style="fill:none;fill-rule:evenodd;stroke:#191919;stroke-width:0.34999999;stroke-miterlimit:4;stroke-dasharray:none"
           d="M 5,14 H 15"
           id="Shape2DView_nwe0009"
           inkscape:connector-curvature="0" />
        <path
           style="fill:none;fill-rule:evenodd;stroke:#191919;stroke-width:0.34999999;stroke-miterlimit:4;stroke-dasharray:none"
           d="m 4,13 m 0,0 1,1"
           id="Shape2DView_nwe0010"
           inkscape:connector-curvature="0" />
        <path
           style="fill:none;fill-rule:evenodd;stroke:#191919;stroke-width:0.34999999;stroke-miterlimit:4;stroke-dasharray:none"
           d="m 4,12 v 1"
           id="Shape2DView_nwe0011"
           inkscape:connector-curvature="0" />
        <title
           id="title4243">Shape2DView</title>
      </g>
      <g
         transform="matrix(1,0,0,-1,0.284758,15.949157)"
         id="Shape2DView001">
        <path
           style="fill:none;fill-rule:evenodd;stroke:#191919;stroke-width:0.34999999;stroke-miterlimit:4;stroke-dasharray:none"
           d="m 18.459604,11.460956 h 1.528707"
           id="Shape2DView001_nwe0000"
           inkscape:connector-curvature="0" />
        <path
           style="fill:none;fill-rule:evenodd;stroke:#191919;stroke-width:0.34999999;stroke-miterlimit:4;stroke-dasharray:none"
           d="m 17.459604,12.460956 m 0,0 1,-1"
           id="Shape2DView001_nwe0001"
           inkscape:connector-curvature="0" />
        <path
           style="fill:none;fill-rule:evenodd;stroke:#191919;stroke-width:0.34999999;stroke-miterlimit:4;stroke-dasharray:none"
           d="m 18.459604,11.460956 v -1"
           id="Shape2DView001_nwe0002"
           inkscape:connector-curvature="0" />
        <path
           style="fill:none;fill-rule:evenodd;stroke:#191919;stroke-width:0.34999999;stroke-miterlimit:4;stroke-dasharray:none"
           d="m 18.459604,10.460956 h 1.528707"
           id="Shape2DView001_nwe0003"
           inkscape:connector-curvature="0" />
        <path
           style="fill:none;fill-rule:evenodd;stroke:#191919;stroke-width:0.34999999;stroke-miterlimit:4;stroke-dasharray:none"
           d="m 19.988311,10.460956 v 1"
           id="Shape2DView001_nwe0004"
           inkscape:connector-curvature="0" />
        <path
           style="fill:none;fill-rule:evenodd;stroke:#191919;stroke-width:0.34999999;stroke-miterlimit:4;stroke-dasharray:none"
           d="M 17.459604,13.748318 V 12.460956"
           id="Shape2DView001_nwe0005"
           inkscape:connector-curvature="0" />
        <path
           style="fill:none;fill-rule:evenodd;stroke:#191919;stroke-width:0.34999999;stroke-miterlimit:4;stroke-dasharray:none"
           d="m 17.459604,12.460956 h -1"
           id="Shape2DView001_nwe0006"
           inkscape:connector-curvature="0" />
        <path
           style="fill:none;fill-rule:evenodd;stroke:#191919;stroke-width:0.34999999;stroke-miterlimit:4;stroke-dasharray:none"
           d="m 16.459604,12.460956 m 0,0 2,-2"
           id="Shape2DView001_nwe0007"
           inkscape:connector-curvature="0" />
        <path
           style="fill:none;fill-rule:evenodd;stroke:#191919;stroke-width:0.34999999;stroke-miterlimit:4;stroke-dasharray:none"
           d="m 15.459604,15.748318 m 0,0 2,-2"
           id="Shape2DView001_nwe0008"
           inkscape:connector-curvature="0" />
        <path
           style="fill:none;fill-rule:evenodd;stroke:#191919;stroke-width:0.34999999;stroke-miterlimit:4;stroke-dasharray:none"
           d="m 17.459604,13.748318 h -1"
           id="Shape2DView001_nwe0009"
           inkscape:connector-curvature="0" />
        <path
           style="fill:none;fill-rule:evenodd;stroke:#191919;stroke-width:0.34999999;stroke-miterlimit:4;stroke-dasharray:none"
           d="M 16.459604,13.748318 V 12.460956"
           id="Shape2DView001_nwe0010"
           inkscape:connector-curvature="0" />
        <path
           style="fill:none;fill-rule:evenodd;stroke:#191919;stroke-width:0.34999999;stroke-miterlimit:4;stroke-dasharray:none"
           d="M 4.444788,15.748318 H 15.459604"
           id="Shape2DView001_nwe0011"
           inkscape:connector-curvature="0" />
        <path
           style="fill:none;fill-rule:evenodd;stroke:#191919;stroke-width:0.34999999;stroke-miterlimit:4;stroke-dasharray:none"
           d="m 15.459604,15.748318 v -1"
           id="Shape2DView001_nwe0012"
           inkscape:connector-curvature="0" />
        <path
           style="fill:none;fill-rule:evenodd;stroke:#191919;stroke-width:0.34999999;stroke-miterlimit:4;stroke-dasharray:none"
           d="m 15.459604,14.748318 m 0,0 1,-1"
           id="Shape2DView001_nwe0013"
           inkscape:connector-curvature="0" />
        <path
           style="fill:none;fill-rule:evenodd;stroke:#191919;stroke-width:0.34999999;stroke-miterlimit:4;stroke-dasharray:none"
           d="m 2.444788,13.748318 m 0,0 2,2"
           id="Shape2DView001_nwe0014"
           inkscape:connector-curvature="0" />
        <path
           style="fill:none;fill-rule:evenodd;stroke:#191919;stroke-width:0.34999999;stroke-miterlimit:4;stroke-dasharray:none"
           d="m 4.444788,15.748318 v -1"
           id="Shape2DView001_nwe0015"
           inkscape:connector-curvature="0" />
        <path
           style="fill:none;fill-rule:evenodd;stroke:#191919;stroke-width:0.34999999;stroke-miterlimit:4;stroke-dasharray:none"
           d="M 4.444788,14.748318 H 15.459604"
           id="Shape2DView001_nwe0016"
           inkscape:connector-curvature="0" />
        <path
           style="fill:none;fill-rule:evenodd;stroke:#191919;stroke-width:0.34999999;stroke-miterlimit:4;stroke-dasharray:none"
           d="m 2.444788,12.571189 v 1.177129"
           id="Shape2DView001_nwe0017"
           inkscape:connector-curvature="0" />
        <path
           style="fill:none;fill-rule:evenodd;stroke:#191919;stroke-width:0.34999999;stroke-miterlimit:4;stroke-dasharray:none"
           d="m 2.444788,13.748318 h 1"
           id="Shape2DView001_nwe0018"
           inkscape:connector-curvature="0" />
        <path
           style="fill:none;fill-rule:evenodd;stroke:#191919;stroke-width:0.34999999;stroke-miterlimit:4;stroke-dasharray:none"
           d="m 3.444788,13.748318 m 0,0 1,1"
           id="Shape2DView001_nwe0019"
           inkscape:connector-curvature="0" />
        <path
           style="fill:none;fill-rule:evenodd;stroke:#191919;stroke-width:0.34999999;stroke-miterlimit:4;stroke-dasharray:none"
           d="m 1.444788,11.571189 m 0,0 1,1"
           id="Shape2DView001_nwe0020"
           inkscape:connector-curvature="0" />
        <path
           style="fill:none;fill-rule:evenodd;stroke:#191919;stroke-width:0.34999999;stroke-miterlimit:4;stroke-dasharray:none"
           d="m 2.444788,12.571189 h 1"
           id="Shape2DView001_nwe0021"
           inkscape:connector-curvature="0" />
        <path
           style="fill:none;fill-rule:evenodd;stroke:#191919;stroke-width:0.34999999;stroke-miterlimit:4;stroke-dasharray:none"
           d="m 3.444788,12.571189 v 1.177129"
           id="Shape2DView001_nwe0022"
           inkscape:connector-curvature="0" />
        <path
           style="fill:none;fill-rule:evenodd;stroke:#191919;stroke-width:0.34999999;stroke-miterlimit:4;stroke-dasharray:none"
           d="M -0.083919,11.571189 H 1.444788"
           id="Shape2DView001_nwe0023"
           inkscape:connector-curvature="0" />
        <path
           style="fill:none;fill-rule:evenodd;stroke:#191919;stroke-width:0.34999999;stroke-miterlimit:4;stroke-dasharray:none"
           d="m 1.444788,11.571189 v -1"
           id="Shape2DView001_nwe0024"
           inkscape:connector-curvature="0" />
        <path
           style="fill:none;fill-rule:evenodd;stroke:#191919;stroke-width:0.34999999;stroke-miterlimit:4;stroke-dasharray:none"
           d="m 1.444788,10.571189 m 0,0 2,2"
           id="Shape2DView001_nwe0025"
           inkscape:connector-curvature="0" />
        <path
           style="fill:none;fill-rule:evenodd;stroke:#191919;stroke-width:0.34999999;stroke-miterlimit:4;stroke-dasharray:none"
           d="m -0.083919,11.571189 v -1"
           id="Shape2DView001_nwe0026"
           inkscape:connector-curvature="0" />
        <path
           style="fill:none;fill-rule:evenodd;stroke:#191919;stroke-width:0.34999999;stroke-miterlimit:4;stroke-dasharray:none"
           d="M -0.083919,10.571189 H 1.444788"
           id="Shape2DView001_nwe0027"
           inkscape:connector-curvature="0" />
        <title
           id="title4274">Shape2DView001</title>
        <path
           style="fill:#006680;fill-opacity:0.94117647;stroke:#000000;stroke-width:0.5876742;stroke-miterlimit:4;stroke-dasharray:none;stroke-opacity:1"
           d="M 45.617918,37.320685 V 36.140184 H 65.68643 85.754941 v 1.180501 1.180501 H 65.68643 45.617918 Z"
           id="path4331"
           inkscape:connector-curvature="0"
           transform="matrix(0.26458333,0,0,-0.26458333,-7.4288647,25.109887)" />
        <path
           style="fill:#006680;fill-opacity:0.94117647;stroke:#000000;stroke-width:0.5876742;stroke-miterlimit:4;stroke-dasharray:none;stroke-opacity:1"
           d="m 41.572669,39.762168 2.443141,-2.449162 0.05257,0.791425 0.05257,0.791425 -1.651517,1.657738 c -1.650949,1.657167 -1.651807,1.657737 -2.495714,1.657737 h -0.844198 z"
           id="path4333"
           inkscape:connector-curvature="0"
           transform="matrix(0.26458333,0,0,-0.26458333,-7.4288647,25.109887)" />
        <path
           style="fill:#006680;fill-opacity:0.94117647;stroke:#000000;stroke-width:0.5876742;stroke-miterlimit:4;stroke-dasharray:none;stroke-opacity:1"
           d="m 38.577075,46.641839 c 0.347826,-0.03638 0.916996,-0.03638 1.264822,0 0.347826,0.03638 0.06324,0.06615 -0.632411,0.06615 -0.695652,0 -0.980237,-0.02977 -0.632411,-0.06615 z"
           id="path4335"
           inkscape:connector-curvature="0"
           transform="matrix(0.26458333,0,0,-0.26458333,-7.4288647,25.109887)" />
        <path
           style="fill:#006680;fill-opacity:0.94117647;stroke:#000000;stroke-width:0.5876742;stroke-miterlimit:4;stroke-dasharray:none;stroke-opacity:1"
           d="m 38.031568,45.204743 -0.0026,-1.475626 h 1.1805 1.180501 l 3.03e-4,1.306983 3.04e-4,1.306983 -1.034422,-0.05826 c -0.734872,-0.04139 -1.076065,0.0074 -1.178225,0.168643 -0.08573,0.135283 -0.144839,-0.368939 -0.146379,-1.248721 z"
           id="path4337"
           inkscape:connector-curvature="0"
           transform="matrix(0.26458333,0,0,-0.26458333,-7.4288647,25.109887)" />
        <path
           style="fill:#006680;fill-opacity:0.94117647;stroke:#000000;stroke-width:0.5876742;stroke-miterlimit:4;stroke-dasharray:none;stroke-opacity:1"
           d="m 34.318841,52.240241 c 0,-0.843907 5.69e-4,-0.844765 1.657737,-2.495714 l 1.657737,-1.651517 0.791425,0.05257 0.791425,0.05257 -2.449162,2.443142 -2.449162,2.443141 z"
           id="path4339"
           inkscape:connector-curvature="0"
           transform="matrix(0.26458333,0,0,-0.26458333,-7.4288647,25.109887)" />
        <path
           style="fill:#006680;fill-opacity:0.94117647;stroke:#000000;stroke-width:0.5876742;stroke-miterlimit:4;stroke-dasharray:none;stroke-opacity:1"
           d="m 28.416337,53.088801 v -1.096179 h 2.192359 2.192358 v 1.096179 1.096179 h -2.192358 -2.192359 z"
           id="path4341"
           inkscape:connector-curvature="0"
           transform="matrix(0.26458333,0,0,-0.26458333,-7.4288647,25.109887)" />
        <path
           style="fill:#006680;fill-opacity:0.94117647;stroke:#000000;stroke-width:0.5876742;stroke-miterlimit:4;stroke-dasharray:none;stroke-opacity:1"
           d="M 28.753623,76.024242 V 57.895125 h 3.457181 c 2.927784,0 3.45718,-0.03793 3.45718,-0.247671 0,-0.157578 0.09799,-0.210068 0.269387,-0.144299 0.40213,0.154312 7.881549,-7.347802 7.628981,-7.652129 -0.136755,-0.164779 -0.113968,-0.219405 0.09152,-0.219405 0.234714,0 0.273614,-0.247425 0.273614,-1.740326 v -1.740326 l 1.72859,-1.716355 1.72859,-1.716355 18.553889,-5e-4 18.553888,-4.99e-4 1.641105,1.647286 1.641105,1.647285 v 1.809895 c 0,1.44282 0.0481,1.809895 0.237176,1.809895 0.1419,0 0.20718,0.118556 0.162506,0.295125 -0.106113,0.41941 7.2142,7.722319 7.594458,7.576401 0.17137,-0.06576 0.269365,-0.01326 0.269365,0.144307 0,0.209745 0.529395,0.247671 3.45718,0.247671 h 3.457182 V 76.024242 94.15336 H 65.855072 28.753623 Z"
           id="path4343"
           inkscape:connector-curvature="0"
           transform="matrix(0.26458333,0,0,-0.26458333,-7.4288647,25.109887)" />
        <path
           style="fill:#006680;fill-opacity:0.94117647;stroke:#000000;stroke-width:0.5876742;stroke-miterlimit:4;stroke-dasharray:none;stroke-opacity:1"
           d="m 94.526556,51.068925 -2.443142,-2.449162 h 0.844198 c 0.843907,0 0.844765,5.7e-4 2.495714,1.657737 l 1.651516,1.657737 -0.05257,0.791425 -0.05257,0.791426 z"
           id="path4345"
           inkscape:connector-curvature="0"
           transform="matrix(0.26458333,0,0,-0.26458333,-7.4288647,25.109887)" />
        <path
           style="fill:#006680;fill-opacity:0.94117647;stroke:#000000;stroke-width:0.5876742;stroke-miterlimit:4;stroke-dasharray:none;stroke-opacity:1"
           d="m 98.571805,53.510408 v -1.1805 h 2.192355 2.19236 v 1.1805 1.180501 h -2.19236 -2.192355 z"
           id="path4347"
           inkscape:connector-curvature="0"
           transform="matrix(0.26458333,0,0,-0.26458333,-7.4288647,25.109887)" />
        <path
           style="fill:#006680;fill-opacity:0.94117647;stroke:#000000;stroke-width:0.5876742;stroke-miterlimit:4;stroke-dasharray:none;stroke-opacity:1"
           d="m 90.982872,45.415547 v -1.68643 h 1.180501 1.180501 v 1.68643 1.686429 h -1.180501 -1.180501 z"
           id="path4349"
           inkscape:connector-curvature="0"
           transform="matrix(0.26458333,0,0,-0.26458333,-7.4288647,25.109887)" />
        <path
           style="fill:#006680;fill-opacity:0.94117647;stroke:#000000;stroke-width:0.5876742;stroke-miterlimit:4;stroke-dasharray:none;stroke-opacity:1"
           d="m 88.90342,40.553594 -1.651517,-1.657738 0.05257,-0.791425 0.05257,-0.791425 2.443141,2.449162 2.443142,2.449163 h -0.844198 c -0.843907,0 -0.844765,-5.74e-4 -2.495714,-1.657737 z"
           id="path4351"
           inkscape:connector-curvature="0"
           transform="matrix(0.26458333,0,0,-0.26458333,-7.4288647,25.109887)" />
      </g>
    </g>
  </g>
</svg>
